<svg width="49" height="48" viewBox="0 0 49 48" fill="none" xmlns="http://www.w3.org/2000/svg">
<path d="M22.6318 16.0078L22.9998 15.9978H37.9998C39.6598 15.9977 41.2569 16.6326 42.4637 17.7725C43.6704 18.9123 44.3954 20.4706 44.4898 22.1278L44.4998 22.4978V37.4978C44.5 39.1581 43.8647 40.7555 42.7245 41.9623C41.5843 43.1691 40.0255 43.8938 38.3678 43.9878L37.9998 43.9978H22.9998C21.3396 43.998 19.7422 43.3627 18.5354 42.2225C17.3286 41.0823 16.6038 39.5235 16.5098 37.8658L16.4998 37.4998V22.4998C16.4997 20.8396 17.135 19.2422 18.2752 18.0354C19.4154 16.8286 20.9742 16.1038 22.6318 16.0098V16.0078ZM37.9998 18.9978H22.9998C22.1215 18.9979 21.2752 19.3282 20.6291 19.9232C19.9829 20.5182 19.5841 21.3344 19.5118 22.2098L19.4998 22.4978V37.4978C19.4999 38.3765 19.8305 39.2231 20.4259 39.8693C21.0214 40.5155 21.8381 40.914 22.7138 40.9858L22.9998 40.9978H37.9998C38.8785 40.9978 39.7251 40.6672 40.3713 40.0718C41.0175 39.4763 41.416 38.6596 41.4878 37.7838L41.4998 37.4978V22.4978C41.4998 21.5696 41.1311 20.6793 40.4747 20.023C39.8183 19.3666 38.9281 18.9978 37.9998 18.9978ZM30.4998 21.9998C30.8977 21.9998 31.2792 22.1579 31.5605 22.4392C31.8418 22.7205 31.9998 23.102 31.9998 23.4998V28.4958H36.9998C37.3977 28.4958 37.7792 28.6539 38.0605 28.9352C38.3418 29.2165 38.4998 29.598 38.4998 29.9958C38.4998 30.3937 38.3418 30.7752 38.0605 31.0565C37.7792 31.3378 37.3977 31.4958 36.9998 31.4958H31.9998V36.4998C31.9998 36.8977 31.8418 37.2792 31.5605 37.5605C31.2792 37.8418 30.8977 37.9998 30.4998 37.9998C30.102 37.9998 29.7205 37.8418 29.4392 37.5605C29.1579 37.2792 28.9998 36.8977 28.9998 36.4998V31.4958H23.9998C23.602 31.4958 23.2205 31.3378 22.9392 31.0565C22.6579 30.7752 22.4998 30.3937 22.4998 29.9958C22.4998 29.598 22.6579 29.2165 22.9392 28.9352C23.2205 28.6539 23.602 28.4958 23.9998 28.4958H28.9998V23.4998C28.9998 23.102 29.1579 22.7205 29.4392 22.4392C29.7205 22.1579 30.102 21.9998 30.4998 21.9998ZM31.6638 8.46584L31.7678 8.81984L33.1538 13.9958H30.0478L28.8718 9.59584C28.753 9.15163 28.5478 8.73518 28.268 8.3703C27.9881 8.00542 27.6391 7.69926 27.2409 7.46932C26.8427 7.23938 26.4031 7.09016 25.9471 7.0302C25.4912 6.97023 25.028 7.00069 24.5838 7.11984L10.0958 11.0038C9.2501 11.2306 8.52009 11.7662 8.04986 12.5049C7.57964 13.2435 7.40337 14.1316 7.55584 14.9938L7.61984 15.2898L11.5038 29.7778C11.686 30.4586 12.0695 31.0686 12.604 31.5279C13.1386 31.9871 13.7994 32.2743 14.4998 32.3518V35.3638C13.1995 35.2863 11.9524 34.8202 10.92 34.0257C9.8877 33.2312 9.11772 32.145 8.70984 30.9078L8.60584 30.5558L4.72384 16.0658C4.29385 14.4626 4.49351 12.7556 5.2819 11.2948C6.07028 9.8341 7.38764 8.73032 8.96384 8.20984L9.31984 8.10584L23.8078 4.22384C25.4111 3.79385 27.1181 3.99351 28.5788 4.7819C30.0396 5.57028 31.1434 6.88764 31.6638 8.46384V8.46584Z" fill="url(#paint0_linear_464_25015)"/>
<defs>
<linearGradient id="paint0_linear_464_25015" x1="11.7932" y1="63.5792" x2="65.9873" y2="21.3768" gradientUnits="userSpaceOnUse">
<stop stop-color="#982DEC"/>
<stop offset="0.572917" stop-color="#DC8DF8"/>
<stop offset="0.895833" stop-color="#A9C4F3"/>
</linearGradient>
</defs>
</svg>
