<svg width="24" height="25" viewBox="0 0 24 25" fill="none" xmlns="http://www.w3.org/2000/svg">
<path fill-rule="evenodd" clip-rule="evenodd" d="M2 12.2622C2 6.74221 6.49 2.26221 12 2.26221L12.2798 2.26605C17.6706 2.41437 22 6.83577 22 12.2622C22 17.7722 17.52 22.2622 12 22.2622C6.49 22.2622 2 17.7722 2 12.2622ZM13.98 16.2622C14.27 15.9622 14.27 15.4922 13.97 15.2022L11.02 12.2622L13.97 9.32221C14.27 9.03221 14.27 8.55221 13.98 8.26221C13.68 7.96221 13.21 7.96221 12.92 8.26221L9.43 11.7322C9.29 11.8722 9.21 12.0622 9.21 12.2622C9.21 12.4622 9.29 12.6522 9.43 12.7922L12.92 16.2622C13.06 16.4122 13.25 16.4822 13.44 16.4822C13.64 16.4822 13.83 16.4122 13.98 16.2622Z" fill="#B920ED"/>
</svg>
