<svg width="24" height="25" viewBox="0 0 24 25" fill="none" xmlns="http://www.w3.org/2000/svg">
<path fill-rule="evenodd" clip-rule="evenodd" d="M22.2969 12.2622C22.2969 17.7822 17.8069 22.2622 12.2969 22.2622L12.0171 22.2584C6.6263 22.11 2.29688 17.6886 2.29688 12.2622C2.29688 6.75221 6.77688 2.26221 12.2969 2.26221C17.8069 2.26221 22.2969 6.75221 22.2969 12.2622ZM10.3169 8.26221C10.0269 8.56221 10.0269 9.03221 10.3269 9.32221L13.2769 12.2622L10.3269 15.2022C10.0269 15.4922 10.0269 15.9722 10.3169 16.2622C10.6169 16.5622 11.0869 16.5622 11.3769 16.2622L14.8669 12.7922C15.0069 12.6522 15.0869 12.4622 15.0869 12.2622C15.0869 12.0622 15.0069 11.8722 14.8669 11.7322L11.3769 8.26221C11.2369 8.11221 11.0469 8.04221 10.8569 8.04221C10.6569 8.04221 10.4669 8.11221 10.3169 8.26221Z" fill="#B920ED"/>
</svg>
