<svg width="1262" height="47" viewBox="0 0 1262 47" fill="none" xmlns="http://www.w3.org/2000/svg">
<path d="M101.492 42.6462C104.435 43.9061 107.363 45.1596 110.592 46.4998H1.19518L6.85472 40.7599H97.0734C98.5754 41.3978 100.035 42.0228 101.492 42.6462ZM222.205 40.7599H222.306L222.399 40.7206L317.749 0.499756H929.087L1024.9 40.7209L1024.99 40.7599H1025.09H1124.75L1111.17 46.4998H132.201C130.946 45.9669 129.733 45.451 128.546 44.9467C125.142 43.4995 121.962 42.1473 118.651 40.7599H222.205ZM1255.04 40.7599L1260.79 46.4998H1132.32C1137.12 44.49 1141.28 42.7061 1145.77 40.7599H1255.04Z" fill="url(#paint0_linear_462_24014)" stroke="url(#paint1_linear_462_24014)"/>
<defs>
<linearGradient id="paint0_linear_462_24014" x1="-115.898" y1="-7.08244" x2="-112.355" y2="116.473" gradientUnits="userSpaceOnUse">
<stop stop-color="#2824E6"/>
<stop offset="1" stop-color="#E40FAC"/>
</linearGradient>
<linearGradient id="paint1_linear_462_24014" x1="-115.898" y1="-7.08244" x2="-112.355" y2="116.473" gradientUnits="userSpaceOnUse">
<stop stop-color="#2824E6"/>
<stop offset="1" stop-color="#E40FAC"/>
</linearGradient>
</defs>
</svg>
