<svg width="125" height="122" viewBox="0 0 125 122" fill="none" xmlns="http://www.w3.org/2000/svg">
<g clip-path="url(#clip0_489_6849)">
<path d="M92.5998 121.05H32.2998C26.3998 121.05 21.1998 117.25 19.2998 111.65L0.699809 54.25C-1.10019 48.6501 0.899808 42.4501 5.69981 39.05L54.3998 3.55005C59.1998 0.0500488 65.5998 0.0500488 70.3998 3.55005L119.2 38.9501C124 42.4501 126 48.5501 124.2 54.1501L105.6 111.55C103.7 117.25 98.4998 121.05 92.5998 121.05ZM62.3998 3.95005C60.1998 3.95005 57.9998 4.65005 56.0998 5.95005L7.39981 41.4501C3.69981 44.1501 2.09981 48.9501 3.49981 53.3501L22.0998 110.75C23.4998 115.15 27.5998 118.05 32.1998 118.05H92.4998C97.0998 118.05 101.2 115.05 102.6 110.75L121.2 53.3501C122.6 48.9501 121.1 44.1501 117.3 41.4501L68.6998 5.95005C66.7998 4.65005 64.5998 3.95005 62.3998 3.95005Z" fill="#9024B6"/>
<path d="M69.8354 54.0329L68.1379 54.9012H54.8621L53.1646 54.0329C51.7875 53.3211 50.2679 52.9503 48.7268 52.95H46.9155C43.4901 52.95 40.205 54.3499 37.7829 56.8419C35.3608 59.3338 34 62.7136 34 66.2378V79.8964C34.0001 81.4068 34.4829 82.8754 35.3739 84.0759C36.2649 85.2765 37.5147 86.1423 38.931 86.5403L39.5379 86.7061C40.9459 87.1025 42.4413 87.0138 43.7958 86.4535C45.1502 85.8933 46.2892 84.8924 47.0388 83.6037L51.8655 75.3305C52.2022 74.7576 52.6766 74.2835 53.2429 73.9538C53.8092 73.624 54.4484 73.4497 55.0991 73.4476H67.9009C68.5516 73.4497 69.1908 73.624 69.7571 73.9538C70.3234 74.2835 70.7978 74.7576 71.1345 75.3305L75.9612 83.6037C76.7108 84.8924 77.8498 85.8933 79.2042 86.4535C80.5587 87.0138 82.0541 87.1025 83.4621 86.7061L84.069 86.5403C85.4853 86.1423 86.7351 85.2765 87.6261 84.0759C88.5171 82.8754 88.9999 81.4068 89 79.8964V66.2378C89 64.4928 88.6659 62.7649 88.0169 61.1527C87.3678 59.5406 86.4164 58.0758 85.2171 56.8419C84.0178 55.608 82.594 54.6292 81.0271 53.9614C79.4601 53.2937 77.7806 52.95 76.0845 52.95H74.2732C72.7321 52.9503 71.2125 53.3211 69.8354 54.0329V54.0329Z" stroke="#B920ED" stroke-width="3" stroke-linecap="round" stroke-linejoin="round"/>
<path d="M78.0172 61.7305C78.0172 62.0202 77.7998 62.1817 77.6207 62.1817C77.4416 62.1817 77.2241 62.0202 77.2241 61.7305C77.2241 61.4408 77.4416 61.2793 77.6207 61.2793C77.7998 61.2793 78.0172 61.4408 78.0172 61.7305Z" stroke="#B920ED" stroke-width="3"/>
<path d="M78.0174 61.7305C78.0174 61.8637 77.9655 61.9832 77.8862 62.0648C77.8083 62.1449 77.712 62.1817 77.6208 62.1817C77.5296 62.1817 77.4333 62.1449 77.3554 62.0648C77.2761 61.9832 77.2243 61.8637 77.2243 61.7305C77.2243 61.5974 77.2761 61.4779 77.3554 61.3963C77.4333 61.3162 77.5296 61.2793 77.6208 61.2793C77.712 61.2793 77.8083 61.3162 77.8862 61.3963C77.9655 61.4779 78.0174 61.5974 78.0174 61.7305ZM77.3554 69.2012C77.4333 69.1211 77.5296 69.0842 77.6208 69.0842C77.712 69.0842 77.8083 69.1211 77.8862 69.2012C77.9655 69.2828 78.0174 69.4023 78.0174 69.5354C78.0174 69.6686 77.9655 69.7881 77.8862 69.8697C77.8083 69.9498 77.712 69.9866 77.6208 69.9866C77.5296 69.9866 77.4333 69.9498 77.3554 69.8697C77.2761 69.7881 77.2243 69.6686 77.2243 69.5354C77.2243 69.4023 77.2761 69.2828 77.3554 69.2012ZM81.6793 65.2987C81.7586 65.3803 81.8105 65.4998 81.8105 65.633C81.8105 65.7661 81.7586 65.8856 81.6793 65.9672C81.6014 66.0473 81.5051 66.0842 81.4139 66.0842C81.3227 66.0842 81.2264 66.0473 81.1485 65.9672C81.0692 65.8856 81.0174 65.7661 81.0174 65.633C81.0174 65.4998 81.0692 65.3803 81.1485 65.2987C81.2264 65.2186 81.3227 65.1817 81.4139 65.1817C81.5051 65.1817 81.6014 65.2186 81.6793 65.2987ZM74.0931 65.2987C74.1724 65.3803 74.2243 65.4998 74.2243 65.633C74.2243 65.7661 74.1724 65.8856 74.0931 65.9672C74.0152 66.0473 73.9189 66.0842 73.8277 66.0842C73.7365 66.0842 73.6402 66.0473 73.5623 65.9672C73.483 65.8856 73.4312 65.7661 73.4312 65.633C73.4312 65.4998 73.483 65.3803 73.5623 65.2987C73.6402 65.2186 73.7365 65.1817 73.8277 65.1817C73.9189 65.1817 74.0152 65.2186 74.0931 65.2987Z" stroke="#B920ED" stroke-width="3"/>
<path d="M49.1726 64.6573H41.5864M45.3795 60.7549V68.5598V60.7549Z" stroke="#B920ED" stroke-width="3" stroke-linecap="round" stroke-linejoin="round"/>
</g>
<defs>
<clipPath id="clip0_489_6849">
<rect width="124.9" height="120.1" fill="white" transform="translate(0 0.949951)"/>
</clipPath>
</defs>
</svg>
