<svg width="125" height="122" viewBox="0 0 125 122" fill="none" xmlns="http://www.w3.org/2000/svg">
<g clip-path="url(#clip0_489_6823)">
<path d="M119.253 39.075L70.4534 3.57495C65.6534 0.0749512 59.2534 0.0749512 54.4534 3.57495L5.65342 39.075C0.853422 42.575 -1.14658 48.675 0.653422 54.275L19.2534 111.675C21.0534 117.275 26.2534 121.075 32.2534 121.075H92.5534C98.4534 121.075 103.653 117.275 105.553 111.675L124.153 54.275C126.053 48.675 124.053 42.475 119.253 39.075ZM121.353 53.375L102.753 110.775C101.353 115.175 97.2534 118.075 92.6534 118.075H32.3534C27.7534 118.075 23.6534 115.075 22.2534 110.775L3.55342 53.375C2.15342 48.975 3.75342 44.175 7.45342 41.475L56.2534 5.97495C58.1534 4.57495 60.3534 3.97495 62.5534 3.97495C64.7534 3.97495 66.9534 4.67495 68.8534 5.97495L117.653 41.375C121.253 44.175 122.853 48.975 121.353 53.375Z" fill="white"/>
<path fill-rule="evenodd" clip-rule="evenodd" d="M52.5685 84.3665H72.4295C80.1989 84.3665 85.4168 78.9167 85.4168 70.8074V52.0924C85.4168 43.983 80.1989 38.5332 72.4318 38.5332H52.5685C44.8014 38.5332 39.5835 43.983 39.5835 52.0924V70.8074C39.5835 78.9167 44.8014 84.3665 52.5685 84.3665ZM54.4767 59.1582C51.3173 59.1582 48.7502 56.5876 48.7502 53.429C48.7502 50.2705 51.3173 47.6999 54.4767 47.6999C57.6338 47.6999 60.2033 50.2705 60.2033 53.429C60.2033 56.5876 57.6338 59.1582 54.4767 59.1582ZM80.4229 68.1735C81.1902 70.1412 80.7916 72.5062 79.9712 74.4549C78.9987 76.7726 77.1367 78.5274 74.7908 79.2937C73.7492 79.6342 72.6569 79.7832 71.5669 79.7832H52.2533C50.3314 79.7832 48.6307 79.322 47.2365 78.4635C46.3631 77.9243 46.2087 76.6803 46.8563 75.8739C47.9394 74.5259 49.0086 73.1731 50.0871 71.8085C52.1427 69.1975 53.5277 68.4408 55.067 69.1053C55.6915 69.3797 56.3183 69.7912 56.9636 70.2263C58.6827 71.3946 61.0724 73.0004 64.2203 71.2574C66.3745 70.0509 67.6239 67.9814 68.7119 66.1792L68.7301 66.1491C68.8072 66.0227 68.8835 65.8964 68.9597 65.7703L68.9598 65.7701L68.9598 65.7701C69.3255 65.1651 69.6862 64.5682 70.0943 64.0182C70.6059 63.33 72.5025 61.1779 74.959 62.7104C76.5237 63.6753 77.8396 64.9808 79.2476 66.3785C79.7845 66.913 80.1671 67.5208 80.4229 68.1735Z" fill="white"/>
</g>
<defs>
<clipPath id="clip0_489_6823">
<rect width="124.9" height="120.1" fill="white" transform="translate(0 0.949951)"/>
</clipPath>
</defs>
</svg>
