<svg width="49" height="48" viewBox="0 0 49 48" fill="none" xmlns="http://www.w3.org/2000/svg">
<g clip-path="url(#clip0_464_25006)">
<path d="M8 10.5C7.60218 10.5 7.22064 10.342 6.93934 10.0607C6.65804 9.77936 6.5 9.39782 6.5 9C6.5 8.60218 6.65804 8.22064 6.93934 7.93934C7.22064 7.65804 7.60218 7.5 8 7.5H41C41.3978 7.5 41.7794 7.65804 42.0607 7.93934C42.342 8.22064 42.5 8.60218 42.5 9C42.5 9.39782 42.342 9.77936 42.0607 10.0607C41.7794 10.342 41.3978 10.5 41 10.5H8ZM14 4.5C13.6022 4.5 13.2206 4.34196 12.9393 4.06066C12.658 3.77936 12.5 3.39782 12.5 3C12.5 2.60218 12.658 2.22064 12.9393 1.93934C13.2206 1.65804 13.6022 1.5 14 1.5H35C35.3978 1.5 35.7794 1.65804 36.0607 1.93934C36.342 2.22064 36.5 2.60218 36.5 3C36.5 3.39782 36.342 3.77936 36.0607 4.06066C35.7794 4.34196 35.3978 4.5 35 4.5H14ZM0.5 39C0.5 40.1935 0.974106 41.3381 1.81802 42.182C2.66193 43.0259 3.80653 43.5 5 43.5H44C45.1935 43.5 46.3381 43.0259 47.182 42.182C48.0259 41.3381 48.5 40.1935 48.5 39V18C48.5 16.8065 48.0259 15.6619 47.182 14.818C46.3381 13.9741 45.1935 13.5 44 13.5H5C3.80653 13.5 2.66193 13.9741 1.81802 14.818C0.974106 15.6619 0.5 16.8065 0.5 18L0.5 39ZM5 40.5C4.60218 40.5 4.22064 40.342 3.93934 40.0607C3.65804 39.7794 3.5 39.3978 3.5 39V18C3.5 17.6022 3.65804 17.2206 3.93934 16.9393C4.22064 16.658 4.60218 16.5 5 16.5H44C44.3978 16.5 44.7794 16.658 45.0607 16.9393C45.342 17.2206 45.5 17.6022 45.5 18V39C45.5 39.3978 45.342 39.7794 45.0607 40.0607C44.7794 40.342 44.3978 40.5 44 40.5H5Z" fill="url(#paint0_linear_464_25006)"/>
</g>
<defs>
<linearGradient id="paint0_linear_464_25006" x1="9.25" y1="64.0625" x2="67.5518" y2="12.178" gradientUnits="userSpaceOnUse">
<stop stop-color="#982DEC"/>
<stop offset="0.572917" stop-color="#DC8DF8"/>
<stop offset="0.895833" stop-color="#A9C4F3"/>
</linearGradient>
<clipPath id="clip0_464_25006">
<rect width="48" height="48" fill="white" transform="translate(0.5)"/>
</clipPath>
</defs>
</svg>
