<svg width="174" height="12" viewBox="0 0 174 12" fill="none" xmlns="http://www.w3.org/2000/svg">
<path d="M1.5 5C0.947715 5 0.5 5.44772 0.5 6C0.5 6.55228 0.947715 7 1.5 7L1.5 5ZM173.274 6.00002L167.5 0.226512L161.727 6.00001L167.5 11.7735L173.274 6.00002ZM7.42857 7C7.98086 7 8.42857 6.55229 8.42857 6C8.42857 5.44772 7.98086 5 7.42857 5L7.42857 7ZM19.2857 5C18.7334 5 18.2857 5.44772 18.2857 6C18.2857 6.55229 18.7334 7 19.2857 7L19.2857 5ZM31.1429 7C31.6951 7 32.1429 6.55229 32.1429 6C32.1429 5.44772 31.6951 5 31.1429 5L31.1429 7ZM43 5C42.4477 5 42 5.44772 42 6C42 6.55229 42.4477 7 43 7L43 5ZM54.8571 7C55.4094 7 55.8571 6.55229 55.8571 6C55.8571 5.44772 55.4094 5 54.8571 5L54.8571 7ZM66.7143 5.00001C66.162 5.00001 65.7143 5.44772 65.7143 6.00001C65.7143 6.55229 66.162 7.00001 66.7143 7.00001L66.7143 5.00001ZM78.5714 7.00001C79.1237 7.00001 79.5714 6.55229 79.5714 6.00001C79.5714 5.44772 79.1237 5.00001 78.5714 5.00001L78.5714 7.00001ZM90.4286 5.00001C89.8763 5.00001 89.4286 5.44772 89.4286 6.00001C89.4286 6.55229 89.8763 7.00001 90.4286 7.00001L90.4286 5.00001ZM102.286 7.00001C102.838 7.00001 103.286 6.55229 103.286 6.00001C103.286 5.44772 102.838 5.00001 102.286 5.00001L102.286 7.00001ZM114.143 5.00001C113.591 5.00001 113.143 5.44772 113.143 6.00001C113.143 6.55229 113.591 7.00001 114.143 7.00001L114.143 5.00001ZM126 7.00001C126.552 7.00001 127 6.5523 127 6.00001C127 5.44773 126.552 5.00001 126 5.00001L126 7.00001ZM137.857 5.00001C137.305 5.00001 136.857 5.44773 136.857 6.00001C136.857 6.5523 137.305 7.00001 137.857 7.00001L137.857 5.00001ZM149.714 7.00001C150.267 7.00001 150.714 6.5523 150.714 6.00001C150.714 5.44773 150.267 5.00001 149.714 5.00001L149.714 7.00001ZM161.571 5.00001C161.019 5.00001 160.571 5.44773 160.571 6.00001C160.571 6.5523 161.019 7.00001 161.571 7.00001L161.571 5.00001ZM1.5 7L7.42857 7L7.42857 5L1.5 5L1.5 7ZM19.2857 7L31.1429 7L31.1429 5L19.2857 5L19.2857 7ZM43 7L54.8571 7L54.8571 5L43 5L43 7ZM66.7143 7.00001L78.5714 7.00001L78.5714 5.00001L66.7143 5.00001L66.7143 7.00001ZM90.4286 7.00001L102.286 7.00001L102.286 5.00001L90.4286 5.00001L90.4286 7.00001ZM114.143 7.00001L126 7.00001L126 5.00001L114.143 5.00001L114.143 7.00001ZM137.857 7.00001L149.714 7.00001L149.714 5.00001L137.857 5.00001L137.857 7.00001ZM161.571 7.00001L167.5 7.00001L167.5 5.00001L161.571 5.00001L161.571 7.00001Z" fill="white"/>
</svg>
