<svg width="24" height="24" viewBox="0 0 24 24" fill="none" xmlns="http://www.w3.org/2000/svg">
<path fill-rule="evenodd" clip-rule="evenodd" d="M1.25 5C1.25 2.92893 2.92893 1.25 5 1.25H7.57143C9.6425 1.25 11.3214 2.92893 11.3214 5V7.57143C11.3214 9.6425 9.6425 11.3214 7.57143 11.3214H5C2.92893 11.3214 1.25 9.6425 1.25 7.57143V5ZM5 2.75C3.75736 2.75 2.75 3.75736 2.75 5V7.57143C2.75 8.81407 3.75736 9.82143 5 9.82143H7.57143C8.81407 9.82143 9.82143 8.81407 9.82143 7.57143V5C9.82143 3.75736 8.81407 2.75 7.57143 2.75H5Z" fill="white"/>
<path fill-rule="evenodd" clip-rule="evenodd" d="M12.6787 5C12.6787 2.92893 14.3576 1.25 16.4287 1.25H19.0001C21.0712 1.25 22.7501 2.92893 22.7501 5V7.57143C22.7501 9.6425 21.0712 11.3214 19.0001 11.3214H16.4287C14.3576 11.3214 12.6787 9.6425 12.6787 7.57143V5ZM16.4287 2.75C15.1861 2.75 14.1787 3.75736 14.1787 5V7.57143C14.1787 8.81407 15.1861 9.82143 16.4287 9.82143H19.0001C20.2428 9.82143 21.2501 8.81407 21.2501 7.57143V5C21.2501 3.75736 20.2428 2.75 19.0001 2.75H16.4287Z" fill="white"/>
<path fill-rule="evenodd" clip-rule="evenodd" d="M12.6787 16.4287C12.6787 14.3576 14.3576 12.6787 16.4287 12.6787H19.0001C21.0712 12.6787 22.7501 14.3576 22.7501 16.4287V19.0001C22.7501 21.0712 21.0712 22.7501 19.0001 22.7501H16.4287C14.3576 22.7501 12.6787 21.0712 12.6787 19.0001V16.4287ZM16.4287 14.1787C15.1861 14.1787 14.1787 15.1861 14.1787 16.4287V19.0001C14.1787 20.2428 15.1861 21.2501 16.4287 21.2501H19.0001C20.2428 21.2501 21.2501 20.2428 21.2501 19.0001V16.4287C21.2501 15.1861 20.2428 14.1787 19.0001 14.1787H16.4287Z" fill="white"/>
<path fill-rule="evenodd" clip-rule="evenodd" d="M1.25 16.4287C1.25 14.3576 2.92893 12.6787 5 12.6787H7.57143C9.6425 12.6787 11.3214 14.3576 11.3214 16.4287V19.0001C11.3214 21.0712 9.6425 22.7501 7.57143 22.7501H5C2.92893 22.7501 1.25 21.0712 1.25 19.0001V16.4287ZM5 14.1787C3.75736 14.1787 2.75 15.1861 2.75 16.4287V19.0001C2.75 20.2428 3.75736 21.2501 5 21.2501H7.57143C8.81407 21.2501 9.82143 20.2428 9.82143 19.0001V16.4287C9.82143 15.1861 8.81407 14.1787 7.57143 14.1787H5Z" fill="white"/>
</svg>
