<svg width="48" height="48" viewBox="0 0 48 48" fill="none" xmlns="http://www.w3.org/2000/svg">
<path d="M31.6683 10.86L30.3103 11.5495H19.6897L18.3317 10.86C17.23 10.2947 16.0143 10.0003 14.7814 10H13.3324C10.5921 10 7.96404 11.1117 6.02633 13.0906C4.08863 15.0695 3 17.7535 3 20.5521V31.3986C3.0001 32.5981 3.38632 33.7643 4.09913 34.7177C4.81194 35.671 5.81176 36.3587 6.94479 36.6747L7.43032 36.8064C8.55675 37.1211 9.75307 37.0507 10.8366 36.6058C11.9201 36.1609 12.8314 35.3661 13.431 34.3427L17.2924 27.7728C17.5618 27.3179 17.9413 26.9414 18.3943 26.6795C18.8473 26.4176 19.3587 26.2792 19.8793 26.2775H30.1207C30.6413 26.2792 31.1527 26.4176 31.6057 26.6795C32.0587 26.9414 32.4382 27.3179 32.7076 27.7728L36.569 34.3427C37.1686 35.3661 38.0798 36.1609 39.1634 36.6058C40.2469 37.0507 41.4433 37.1211 42.5697 36.8064L43.0552 36.6747C44.1882 36.3587 45.1881 35.671 45.9009 34.7177C46.6137 33.7643 46.9999 32.5981 47 31.3986V20.5521C47 19.1664 46.7328 17.7942 46.2135 16.514C45.6943 15.2337 44.9331 14.0705 43.9737 13.0906C43.0142 12.1108 41.8752 11.3335 40.6216 10.8032C39.3681 10.2729 38.0245 10 36.6676 10H35.2186C33.9857 10.0003 32.77 10.2947 31.6683 10.86V10.86Z" stroke="url(#paint0_linear_464_25023)" stroke-width="2" stroke-linecap="round" stroke-linejoin="round"/>
<path d="M39 17C39 17.3568 38.8903 17.6414 38.7607 17.8142C38.6313 17.9867 38.5289 18 38.5 18C38.4711 18 38.3687 17.9867 38.2393 17.8142C38.1097 17.6414 38 17.3568 38 17C38 16.6432 38.1097 16.3586 38.2393 16.1858C38.3687 16.0133 38.4711 16 38.5 16C38.5289 16 38.6313 16.0133 38.7607 16.1858C38.8903 16.3586 39 16.6432 39 17Z" stroke="url(#paint1_linear_464_25023)" stroke-width="2"/>
<path d="M39 16.6667C39 16.8755 38.9244 17.0573 38.8173 17.1762L39.5606 17.8452L38.8173 17.1762C38.7135 17.2916 38.5966 17.3333 38.5 17.3333C38.4034 17.3333 38.2865 17.2916 38.1827 17.1762C38.0756 17.0573 38 16.8755 38 16.6667C38 16.4579 38.0756 16.276 38.1827 16.1571C38.2865 16.0417 38.4034 16 38.5 16C38.5966 16 38.7135 16.0417 38.8173 16.1571C38.9244 16.276 39 16.4579 39 16.6667ZM38.1827 22.8238C38.2865 22.7084 38.4034 22.6667 38.5 22.6667C38.5966 22.6667 38.7135 22.7084 38.8173 22.8238C38.9244 22.9427 39 23.1245 39 23.3333C39 23.5421 38.9244 23.724 38.8173 23.8429C38.7135 23.9583 38.5966 24 38.5 24C38.4034 24 38.2865 23.9583 38.1827 23.8429C38.0756 23.724 38 23.5421 38 23.3333C38 23.1245 38.0756 22.9427 38.1827 22.8238ZM41.8173 19.4905C41.9244 19.6094 42 19.7912 42 20C42 20.2088 41.9244 20.3906 41.8173 20.5095C41.7135 20.625 41.5966 20.6667 41.5 20.6667C41.4034 20.6667 41.2865 20.625 41.1827 20.5095C41.0756 20.3906 41 20.2088 41 20C41 19.7912 41.0756 19.6094 41.1827 19.4905C41.2865 19.375 41.4034 19.3333 41.5 19.3333C41.5966 19.3333 41.7135 19.375 41.8173 19.4905ZM35.8173 19.4905L36.5606 18.8215L35.8173 19.4905C35.9244 19.6094 36 19.7912 36 20C36 20.2088 35.9244 20.3906 35.8173 20.5095C35.7135 20.625 35.5966 20.6667 35.5 20.6667C35.4034 20.6667 35.2865 20.625 35.1827 20.5095C35.0756 20.3906 35 20.2088 35 20C35 19.7912 35.0756 19.6094 35.1827 19.4905L34.4671 18.8465L35.1827 19.4905C35.2865 19.375 35.4034 19.3333 35.5 19.3333C35.5966 19.3333 35.7135 19.375 35.8173 19.4905Z" stroke="url(#paint2_linear_464_25023)" stroke-width="2"/>
<path d="M15 19H9M12 16V22V16Z" stroke="url(#paint3_linear_464_25023)" stroke-width="2" stroke-linecap="round" stroke-linejoin="round"/>
<defs>
<linearGradient id="paint0_linear_464_25023" x1="11.0208" y1="50.2188" x2="47.7098" y2="3.66136" gradientUnits="userSpaceOnUse">
<stop stop-color="#982DEC"/>
<stop offset="0.572917" stop-color="#DC8DF8"/>
<stop offset="0.895833" stop-color="#A9C4F3"/>
</linearGradient>
<linearGradient id="paint1_linear_464_25023" x1="37.5469" y1="20.9583" x2="42.4159" y2="18.1147" gradientUnits="userSpaceOnUse">
<stop stop-color="#982DEC"/>
<stop offset="0.572917" stop-color="#DC8DF8"/>
<stop offset="0.895833" stop-color="#A9C4F3"/>
</linearGradient>
<linearGradient id="paint2_linear_464_25023" x1="35.6406" y1="29.8958" x2="48.7776" y2="20.6892" gradientUnits="userSpaceOnUse">
<stop stop-color="#982DEC"/>
<stop offset="0.572917" stop-color="#DC8DF8"/>
<stop offset="0.895833" stop-color="#A9C4F3"/>
</linearGradient>
<linearGradient id="paint3_linear_464_25023" x1="10.0938" y1="24.9375" x2="18.2236" y2="18.6069" gradientUnits="userSpaceOnUse">
<stop stop-color="#982DEC"/>
<stop offset="0.572917" stop-color="#DC8DF8"/>
<stop offset="0.895833" stop-color="#A9C4F3"/>
</linearGradient>
</defs>
</svg>
