<svg width="21" height="21" viewBox="0 0 21 21" fill="none" xmlns="http://www.w3.org/2000/svg">
<g id="login-7 1" clip-path="url(#clip0_119_62)">
<path id="Vector" d="M8.75 15.0937V12.25H2.625V8.75H8.75V5.90625L13.3438 10.5L8.75 15.0937ZM7 1.75H14.875C15.1048 1.75 15.3324 1.79527 15.5447 1.88321C15.757 1.97116 15.9499 2.10006 16.1124 2.26256C16.2749 2.42507 16.4038 2.61798 16.4918 2.8303C16.5797 3.04262 16.625 3.27019 16.625 3.5V17.5C16.625 17.7298 16.5797 17.9574 16.4918 18.1697C16.4038 18.382 16.2749 18.5749 16.1124 18.7374C15.9499 18.8999 15.757 19.0288 15.5447 19.1168C15.3324 19.2047 15.1048 19.25 14.875 19.25H7C6.77019 19.25 6.54262 19.2047 6.3303 19.1168C6.11798 19.0288 5.92507 18.8999 5.76256 18.7374C5.60006 18.5749 5.47116 18.382 5.38321 18.1697C5.29527 17.9574 5.25 17.7298 5.25 17.5V14H7V17.5H14.875V3.5H7V7H5.25V3.5C5.25 3.27019 5.29527 3.04262 5.38321 2.8303C5.47116 2.61798 5.60006 2.42507 5.76256 2.26256C5.92507 2.10006 6.11798 1.97116 6.3303 1.88321C6.54262 1.79527 6.77019 1.75 7 1.75Z" fill="white"/>
<path id="Vector (Stroke)" fill-rule="evenodd" clip-rule="evenodd" d="M7 17.5H14.875V3.5H7V7H5.25V3.5C5.25 3.27019 5.29527 3.04262 5.38321 2.8303C5.47116 2.61798 5.60006 2.42507 5.76256 2.26256C5.92507 2.10006 6.11798 1.97116 6.3303 1.88321C6.54262 1.79527 6.77019 1.75 7 1.75H14.875C15.1048 1.75 15.3324 1.79527 15.5447 1.88321C15.757 1.97116 15.9499 2.10006 16.1124 2.26256C16.2749 2.42507 16.4038 2.61798 16.4918 2.8303C16.5797 3.04262 16.625 3.27019 16.625 3.5V17.5C16.625 17.7298 16.5797 17.9574 16.4918 18.1697C16.4038 18.382 16.2749 18.5749 16.1124 18.7374C15.9499 18.8999 15.757 19.0288 15.5447 19.1168C15.3324 19.2047 15.1048 19.25 14.875 19.25H7C6.77019 19.25 6.54262 19.2047 6.3303 19.1168C6.11798 19.0288 5.92507 18.8999 5.76256 18.7374C5.60006 18.5749 5.47116 18.382 5.38321 18.1697C5.29527 17.9574 5.25 17.7298 5.25 17.5V14H7V17.5ZM11.1722 15.5H12.875V13.7972L11.1722 15.5ZM13.3438 10.5L8.75 5.90625V8.75H2.625V12.25H8.75V15.0937L13.3438 10.5ZM3.25 14.25V17.5C3.25 17.9925 3.347 18.4801 3.53545 18.9351C3.72391 19.39 4.00013 19.8034 4.34835 20.1516C4.69657 20.4999 5.10996 20.7761 5.56494 20.9645C6.01991 21.153 6.50754 21.25 7 21.25H14.875C15.3675 21.25 15.8551 21.153 16.3101 20.9645C16.765 20.7761 17.1784 20.4999 17.5266 20.1516C17.8749 19.8034 18.1511 19.39 18.3396 18.9351C18.528 18.4801 18.625 17.9925 18.625 17.5V3.5C18.625 3.00754 18.528 2.51991 18.3396 2.06494C18.1511 1.60996 17.8749 1.19657 17.5266 0.848349C17.1784 0.500132 16.765 0.223908 16.3101 0.0354518C15.8551 -0.153004 15.3675 -0.25 14.875 -0.25H7C6.50754 -0.25 6.01991 -0.153004 5.56494 0.0354518C5.10997 0.223907 4.69657 0.50013 4.34835 0.848349C4.00013 1.19657 3.72391 1.60996 3.53545 2.06494C3.347 2.51991 3.25 3.00754 3.25 3.5V6.75H2.625C1.52043 6.75 0.625 7.64543 0.625 8.75V12.25C0.625 13.3546 1.52043 14.25 2.625 14.25H3.25ZM11.1722 5.5L12.875 7.20282V5.5H11.1722Z" fill="black"/>
</g>
<defs>
<clipPath id="clip0_119_62">
<rect width="21" height="21" fill="white"/>
</clipPath>
</defs>
</svg>
