<svg xmlns="http://www.w3.org/2000/svg" width="43" height="43" viewBox="0 0 43 43" fill="none">
  <g filter="url(#filter0_i_299_1258)">
    <circle cx="21.5" cy="21.5" r="21.5" fill="#FFB252"/>
  </g>
  <circle cx="21.5" cy="21.5" r="20" stroke="black" stroke-width="3"/>
  <path d="M23.2785 28.0209L23.2785 28.0208C23.1988 27.8284 23.1578 27.6222 23.1578 27.414C23.1578 27.4139 23.1578 27.4138 23.1578 27.4138L23.1578 23.5087C23.1578 23.5085 23.1578 23.5083 23.1578 23.5081C23.157 23.1005 22.9946 22.7097 22.7061 22.4217C22.4174 22.1335 22.0262 21.9716 21.6184 21.9716C21.2105 21.9716 20.8193 22.1335 20.5306 22.4217C20.2421 22.7097 20.0797 23.1005 20.0789 23.5081V27.4139C20.0789 27.8346 19.9118 28.238 19.6144 28.5354C19.3169 28.8329 18.9135 29 18.4929 29H14.586C14.1654 29 13.762 28.8329 13.4645 28.5354C13.1671 28.238 13 27.8346 13 27.4139V18.4695V18.4695C13 18.1119 13.0883 17.7599 13.257 17.4446C13.4257 17.1294 13.6697 16.8606 13.9672 16.6623L13.9672 16.6622L20.4134 12.3648C20.4135 12.3648 20.4135 12.3648 20.4135 12.3648C20.7703 12.1269 21.1895 12 21.6183 12C22.0471 12 22.4663 12.1269 22.8231 12.3648C22.8231 12.3648 22.8231 12.3648 22.8231 12.3648L29.2693 16.6622L29.2694 16.6623C29.5669 16.8606 29.8108 17.1294 29.9795 17.4446C30.1483 17.7599 30.2365 18.1119 30.2366 18.4695V27.414C30.2366 27.8346 30.0695 28.238 29.772 28.5355C29.4746 28.8329 29.0712 29 28.6505 29H24.744C24.7439 29 24.7439 29 24.7438 29L23.2785 28.0209ZM23.2785 28.0209C23.3582 28.2133 23.475 28.3882 23.6223 28.5355C23.7696 28.6828 23.9445 28.7996 24.1369 28.8793L23.2785 28.0209Z" fill="white" stroke="black" stroke-width="2" stroke-linejoin="round"/>
  <defs>
    <filter id="filter0_i_299_1258" x="0" y="0" width="43" height="43" filterUnits="userSpaceOnUse" color-interpolation-filters="sRGB">
      <feFlood flood-opacity="0" result="BackgroundImageFix"/>
      <feBlend mode="normal" in="SourceGraphic" in2="BackgroundImageFix" result="shape"/>
      <feColorMatrix in="SourceAlpha" type="matrix" values="0 0 0 0 0 0 0 0 0 0 0 0 0 0 0 0 0 0 127 0" result="hardAlpha"/>
      <feOffset dx="-4" dy="-4"/>
      <feComposite in2="hardAlpha" operator="arithmetic" k2="-1" k3="1"/>
      <feColorMatrix type="matrix" values="0 0 0 0 0 0 0 0 0 0 0 0 0 0 0 0 0 0 0.25 0"/>
      <feBlend mode="normal" in2="shape" result="effect1_innerShadow_299_1258"/>
    </filter>
  </defs>
</svg>