<svg xmlns="http://www.w3.org/2000/svg" width="43" height="43" viewBox="0 0 43 43" fill="none">
  <g filter="url(#filter0_i_511_100)">
    <circle cx="21.5" cy="21.5" r="21.5" fill="#FFB252"/>
  </g>
  <circle cx="21.5" cy="21.5" r="20" stroke="black" stroke-width="3"/>
  <path d="M29.1834 20.0599V19.4666C29.1834 15.3549 25.8286 12 21.7168 12C17.6051 12 14.2502 15.3549 14.2502 19.4666V20.0599C12.941 20.5508 12 21.8191 12 23.292C12 25.1944 13.5547 26.7491 15.4571 26.7491H16.705C17.0323 26.7491 17.2982 26.4832 17.2982 26.1559V20.4281C17.2982 20.1008 17.0323 19.8348 16.705 19.8348H16.1322V19.4666C16.1322 16.3777 18.6279 13.882 21.7168 13.882C24.8058 13.882 27.3014 16.3777 27.3014 19.4666V19.8348H26.7287C26.4014 19.8348 26.1354 20.1008 26.1354 20.4281V26.1559C26.1354 26.4832 26.4014 26.7491 26.7287 26.7491H26.9946C26.4014 28.1197 25.0921 29.0812 23.5375 29.2039C23.4556 28.8152 23.1079 28.5084 22.6783 28.5084H21.7349C21.244 28.5084 20.8553 28.897 20.8553 29.388V30.3904C20.8553 30.8813 21.244 31.27 21.7349 31.27H22.6783C23.1079 31.27 23.4761 30.9632 23.5375 30.5336C25.849 30.4108 27.7719 28.8357 28.4266 26.7082C30.104 26.4832 31.4132 25.0308 31.4132 23.292C31.4337 21.7987 30.4927 20.5508 29.1834 20.0599Z" fill="white"/>
  <path fill-rule="evenodd" clip-rule="evenodd" d="M27.3014 19.8348V19.4666C27.3014 18.8987 27.2171 18.3508 27.0602 17.8348C26.3637 15.5443 24.2378 13.882 21.7168 13.882C19.1958 13.882 17.07 15.5443 16.3735 17.8348C16.2166 18.3508 16.1322 18.8987 16.1322 19.4666V19.8348H16.705C17.0323 19.8348 17.2982 20.1008 17.2982 20.4281V26.1559C17.2982 26.4832 17.0323 26.7491 16.705 26.7491H15.4571C13.5547 26.7491 12 25.1944 12 23.292C12 21.8571 12.893 20.6164 14.1496 20.0994C14.1829 20.0857 14.2164 20.0725 14.2502 20.0599V19.4666C14.2502 15.3549 17.6051 12 21.7168 12C25.8286 12 29.1834 15.3549 29.1834 19.4666V20.0599C29.2172 20.0725 29.2508 20.0857 29.2841 20.0994C30.5406 20.6154 31.4331 21.8372 31.4132 23.292C31.4132 24.8314 30.3871 26.1463 28.9878 26.5838C28.8065 26.6404 28.6189 26.6824 28.4266 26.7082C28.3667 26.9029 28.2961 27.0929 28.2157 27.2776C27.4301 29.0813 25.6964 30.3784 23.6419 30.527C23.6072 30.5295 23.5724 30.5317 23.5375 30.5336C23.4983 30.8075 23.3344 31.0315 23.1094 31.1579C22.9816 31.2297 22.8339 31.27 22.6783 31.27H21.7349C21.244 31.27 20.8553 30.8813 20.8553 30.3904V29.388C20.8553 28.897 21.244 28.5084 21.7349 28.5084H22.6783C22.8136 28.5084 22.9408 28.5388 23.0541 28.5927C23.2265 28.6746 23.3668 28.8107 23.4548 28.9763C23.4925 29.0474 23.5206 29.1239 23.5375 29.2039C23.9054 29.1748 24.2596 29.0988 24.5938 28.9815C24.893 28.8765 25.1761 28.7384 25.4388 28.5713C25.4854 28.5417 25.5313 28.5111 25.5766 28.4797C26.0395 28.1583 26.4324 27.7438 26.7287 27.2608C26.8287 27.0978 26.9177 26.9269 26.9946 26.7491H26.7287C26.575 26.7491 26.4348 26.6905 26.3294 26.5944C26.2699 26.5402 26.2215 26.4741 26.1879 26.4C26.1542 26.3255 26.1354 26.2429 26.1354 26.1559V20.4281C26.1354 20.1008 26.4014 19.8348 26.7287 19.8348H27.3014ZM25.1354 18.3821C24.5269 18.8567 24.1354 19.5968 24.1354 20.4281V26.1559C24.1354 26.4319 24.1786 26.6978 24.2585 26.9474C24.2494 26.9524 24.2402 26.9575 24.2309 26.9624C23.7868 26.6765 23.256 26.5084 22.6783 26.5084H21.7349C20.1394 26.5084 18.8553 27.7925 18.8553 29.388V30.3904C18.8553 31.9859 20.1394 33.27 21.7349 33.27H22.6783C23.4737 33.27 24.221 32.9409 24.7534 32.3877C27.0292 31.9171 28.9155 30.4045 29.9087 28.3799C31.9485 27.5966 33.4074 25.6172 33.4132 23.3058C33.434 21.454 32.5278 19.8539 31.165 18.8724C30.8568 13.9313 26.7336 10 21.7168 10C16.6994 10 12.5758 13.9323 12.2686 18.8743C10.9011 19.8628 10 21.4719 10 23.292C10 26.299 12.4501 28.7491 15.4571 28.7491H16.705C18.1369 28.7491 19.2982 27.5878 19.2982 26.1559V20.4281C19.2982 19.5968 18.9068 18.8567 18.2982 18.3821C18.7563 16.9303 20.1108 15.882 21.7168 15.882C23.3229 15.882 24.6774 16.9303 25.1354 18.3821Z" fill="black"/>
  <defs>
    <filter id="filter0_i_511_100" x="0" y="0" width="43" height="43" filterUnits="userSpaceOnUse" color-interpolation-filters="sRGB">
      <feFlood flood-opacity="0" result="BackgroundImageFix"/>
      <feBlend mode="normal" in="SourceGraphic" in2="BackgroundImageFix" result="shape"/>
      <feColorMatrix in="SourceAlpha" type="matrix" values="0 0 0 0 0 0 0 0 0 0 0 0 0 0 0 0 0 0 127 0" result="hardAlpha"/>
      <feOffset dx="-4" dy="-4"/>
      <feComposite in2="hardAlpha" operator="arithmetic" k2="-1" k3="1"/>
      <feColorMatrix type="matrix" values="0 0 0 0 0 0 0 0 0 0 0 0 0 0 0 0 0 0 0.25 0"/>
      <feBlend mode="normal" in2="shape" result="effect1_innerShadow_511_100"/>
    </filter>
  </defs>
</svg>