<svg xmlns="http://www.w3.org/2000/svg" width="24" height="24" viewBox="0 0 24 24" fill="none">
<path d="M11.0431 17.2328L11.0063 17.217L10.9674 17.2073C10.6733 17.1337 10.2911 17.1941 10.0311 17.4542L10.3846 17.8077L10.0311 17.4542L9.83875 17.6465C8.89379 18.5914 7.38276 18.6675 6.44285 17.8529L6.43985 17.8504C5.36091 16.9301 5.32271 15.269 6.31509 14.2767L9.23816 11.3536C9.54587 11.0459 9.92357 10.8495 10.3319 10.7114C10.8411 10.588 11.3766 10.6221 11.8442 10.807C12.1587 10.9474 12.4403 11.1089 12.6849 11.3536C12.8044 11.473 12.895 11.5922 12.9922 11.7537C13.3035 12.2904 14.0485 12.4111 14.4823 11.9171L15.5459 10.8536C15.9045 10.4949 15.8588 9.99802 15.6595 9.66585L15.6534 9.65565L15.6468 9.64575C15.4653 9.37345 15.2431 9.15131 15.0587 8.96698L15.0459 8.95416C14.7665 8.67477 14.4254 8.3722 14.0263 8.14783C13.4314 7.76808 12.7587 7.5181 12.0525 7.39297C10.7497 7.14181 9.32665 7.35121 8.1485 7.98236L8.14849 7.98235L8.14518 7.98415C7.68413 8.23563 7.22171 8.5712 6.83875 8.95416L4.03106 11.7619C1.81656 13.9764 1.62957 17.5906 3.78748 19.8788C6.02188 22.3206 9.81035 22.3583 12.1228 20.0459L13.0609 19.1077C13.3989 18.8367 13.4023 18.4191 13.2912 18.1413C13.1779 17.8582 12.9077 17.5888 12.526 17.5426L11.7427 17.4307L11.7384 17.4298C11.732 17.4284 11.7243 17.4266 11.7153 17.4246C11.7045 17.4222 11.692 17.4193 11.6779 17.4161C11.6262 17.4041 11.5546 17.3871 11.4755 17.3667C11.3076 17.3236 11.139 17.2738 11.0431 17.2328ZM19.8789 3.86462L19.8784 3.86416C17.5583 1.7128 13.9463 1.88758 11.7642 4.10559L10.8852 4.94639L10.8851 4.9463L10.8772 4.95416C10.5829 5.24843 10.551 5.64654 10.6664 5.95443C10.7787 6.25367 11.0538 6.53044 11.4448 6.57389L11.4546 6.57497L11.4644 6.57568C11.9568 6.61085 12.4593 6.71719 12.978 6.8654L12.986 6.86769L12.9941 6.86971C13.2883 6.94325 13.6704 6.88284 13.9305 6.62281L13.5769 6.26925L13.9305 6.62281L14.1228 6.4305C15.0677 5.48554 16.5788 5.40943 17.5187 6.22402L17.5217 6.22659C18.6006 7.14687 18.6388 8.80793 17.6464 9.80032L14.7234 12.7234C14.4157 13.0311 14.038 13.2275 13.6296 13.3656C13.1204 13.489 12.5849 13.4548 12.1173 13.2699C11.8028 13.1295 11.5213 12.968 11.2766 12.7234C11.1572 12.6039 11.0665 12.4848 10.9694 12.3233C10.6581 11.7866 9.91302 11.6658 9.47922 12.1598L8.41567 13.2234C8.05698 13.5821 8.10272 14.079 8.30202 14.4111L8.30814 14.4213L8.31474 14.4312C8.49627 14.7035 8.71848 14.9257 8.90287 15.11L8.91567 15.1228C9.21304 15.4202 9.58823 15.7118 9.92459 15.9223C10.5213 16.3054 11.1968 16.5575 11.868 16.6835C13.1715 16.9354 14.5956 16.7262 15.7746 16.0946L15.7746 16.0946L15.7779 16.0928C16.2389 15.8413 16.7014 15.5058 17.0843 15.1228L20.0042 12.2029C20.0048 12.2023 20.0054 12.2018 20.0059 12.2012C22.3639 9.88342 22.2768 6.0942 19.8789 3.86462Z" fill="#4DA154" stroke="black"/>
</svg>