<svg xmlns="http://www.w3.org/2000/svg" width="44" height="44" viewBox="0 0 44 44" fill="none">
  <g filter="url(#filter0_i_195_12)">
    <circle cx="22" cy="22" r="22" fill="#4DA154"/>
  </g>
  <circle cx="22" cy="22" r="20.5" stroke="black" stroke-width="3"/>
  <path fill-rule="evenodd" clip-rule="evenodd" d="M15.0159 17.8561C15.0372 17.6394 14.9571 17.4256 14.8013 17.2801L13.2146 15.2961V15H18.1432L21.9526 23.6669L25.3016 15H30V15.2961L28.6428 16.6459C28.526 16.7385 28.4679 16.8906 28.492 17.0413V26.9595C28.4679 27.1094 28.526 27.2615 28.6428 27.3541L29.9681 28.7039V29H23.3013V28.7039L24.6748 27.321C24.8093 27.1814 24.8093 27.1402 24.8093 26.9264V18.9098L20.9921 28.9677H20.4765L16.0317 18.9098V25.6508C15.9948 25.9337 16.0855 26.2195 16.2775 26.4238L18.0632 28.6708V28.9677H13V28.6708L14.7857 26.4238C14.977 26.2188 15.062 25.9315 15.0159 25.6508V17.8561Z" fill="white"/>
  <path fill-rule="evenodd" clip-rule="evenodd" d="M13.0159 18.2498L11.6527 16.5453C11.3691 16.1907 11.2146 15.7502 11.2146 15.2961V15C11.2146 13.8954 12.1101 13 13.2146 13H18.1432C18.9366 13 19.6549 13.4689 19.9742 14.1952L21.8337 18.4259L23.4361 14.2791C23.7339 13.5083 24.4752 13 25.3016 13H30C31.1046 13 32 13.8954 32 15V15.2961C32 15.8284 31.7878 16.3388 31.4104 16.7142L30.492 17.6276V26.3827L31.3952 27.3027C31.7624 27.6767 31.9681 28.1798 31.9681 28.7039V29C31.9681 30.1046 31.0727 31 29.9681 31H23.3013C22.8611 31 22.4541 30.8578 22.1237 30.6168C21.7978 30.8404 21.4057 30.9677 20.9921 30.9677H20.4765C20.0317 30.9677 19.6104 30.8203 19.2699 30.5627C18.9345 30.8169 18.5164 30.9677 18.0632 30.9677H13C11.8954 30.9677 11 30.0722 11 28.9677V28.6708C11 28.2189 11.1531 27.7803 11.4342 27.4265L13.0159 25.4362V18.2498ZM20.4765 28.9677H20.9921L24.8093 18.9098V26.9264C24.8093 26.9535 24.8093 26.9779 24.8091 27C24.8072 27.1523 24.7923 27.1991 24.6748 27.321L23.3013 28.7039V29H29.9681V28.7039L28.6428 27.3541C28.5365 27.2698 28.4788 27.1363 28.4874 27C28.4883 26.9865 28.4898 26.973 28.492 26.9595V17.0413C28.4898 17.0275 28.4882 17.0137 28.4874 17C28.479 16.8633 28.5366 16.7301 28.6428 16.6459L30 15.2961V15H25.3016L21.9526 23.6669L18.1432 15H13.2146V15.2961L14.8013 17.2801C14.8116 17.2897 14.8216 17.2997 14.8313 17.3099C14.9673 17.4539 15.0358 17.6538 15.0159 17.8561V25.6508C15.062 25.9315 14.977 26.2188 14.7857 26.4238L13 28.6708V28.9677H18.0632V28.6708L16.2775 26.4238C16.0855 26.2195 15.9948 25.9337 16.0317 25.6508V18.9098L20.4765 28.9677Z" fill="black"/>
  <defs>
    <filter id="filter0_i_195_12" x="0" y="0" width="44" height="44" filterUnits="userSpaceOnUse" color-interpolation-filters="sRGB">
      <feFlood flood-opacity="0" result="BackgroundImageFix"/>
      <feBlend mode="normal" in="SourceGraphic" in2="BackgroundImageFix" result="shape"/>
      <feColorMatrix in="SourceAlpha" type="matrix" values="0 0 0 0 0 0 0 0 0 0 0 0 0 0 0 0 0 0 127 0" result="hardAlpha"/>
      <feOffset dx="-4" dy="-4"/>
      <feComposite in2="hardAlpha" operator="arithmetic" k2="-1" k3="1"/>
      <feColorMatrix type="matrix" values="0 0 0 0 0 0 0 0 0 0 0 0 0 0 0 0 0 0 0.25 0"/>
      <feBlend mode="normal" in2="shape" result="effect1_innerShadow_195_12"/>
    </filter>
  </defs>
</svg>