<svg width="24" height="23" viewBox="0 0 24 23" fill="none" xmlns="http://www.w3.org/2000/svg">
<path d="M6.12418 12.0937L5.87566 12.5286L6.31095 12.7764L7.9043 13.6833L8.33808 13.9302L8.58575 13.4969L11.2915 8.76247C11.5156 8.80565 11.7519 8.83343 12 8.83343C14.301 8.83343 16.1666 6.9675 16.1666 4.66658C16.1666 2.36561 14.301 0.5 12 0.5C9.69902 0.5 7.83341 2.36561 7.83341 4.66658C7.83341 5.69654 8.21027 6.63672 8.82835 7.36209L6.12418 12.0937ZM12 6C11.2636 6 10.6666 5.40299 10.6666 4.66658C10.6666 3.93027 11.2635 3.33343 12 3.33343C12.7365 3.33343 13.3334 3.93027 13.3334 4.66658C13.3334 5.40299 12.7364 6 12 6Z" fill="#4DA154" stroke="black"/>
<path d="M13.9154 18.9169H14.4154V18.4169V16.5834V16.0834H13.9154H8.5713C7.9924 14.4849 6.4715 13.3334 4.66658 13.3334C2.36561 13.3334 0.5 15.199 0.5 17.5C0.5 19.8009 2.36556 21.6669 4.66658 21.6669C6.47152 21.6669 7.99238 20.5151 8.57128 18.9169H13.9154ZM4.66658 18.8334C3.93027 18.8334 3.33343 18.2365 3.33343 17.5C3.33343 16.7636 3.93017 16.1669 4.66658 16.1669C5.40308 16.1669 6 16.7637 6 17.5C6 18.2364 5.40299 18.8334 4.66658 18.8334Z" fill="#4DA154" stroke="black"/>
<path d="M13.4573 10.0729L16.1615 14.8046C15.5437 15.5297 15.1666 16.4695 15.1666 17.5C15.1666 19.801 17.0325 21.6669 19.3334 21.6669C21.6344 21.6669 23.5 19.8009 23.5 17.5C23.5 15.1991 21.6344 13.3334 19.3334 13.3334C19.0852 13.3334 18.849 13.3612 18.6249 13.4044L15.9192 8.66973L15.6715 8.23639L15.2378 8.48326L13.6441 9.39021L13.2088 9.63797L13.4573 10.0729ZM19.3334 18.8335C18.597 18.8335 18 18.2364 18 17.5C18 16.7637 18.5969 16.1669 19.3334 16.1669C20.0698 16.1669 20.6666 16.7636 20.6666 17.5C20.6666 18.2365 20.0697 18.8335 19.3334 18.8335Z" fill="#4DA154" stroke="black"/>
</svg>
