<svg width="44" height="44" viewBox="0 0 44 44" fill="none" xmlns="http://www.w3.org/2000/svg">
<g id="Group 29">
<g id="Group 27">
<g id="Ellipse 2">
<g filter="url(#filter0_i_117_40)">
<circle cx="22" cy="22" r="22" fill="#4DA154"/>
</g>
<circle cx="22" cy="22" r="20.5" stroke="black" stroke-width="3"/>
</g>
</g>
<path id="Vector" d="M26.5507 15.1324C26.5507 15.1324 28.1233 14.4831 27.9922 16.06C27.9486 16.7093 27.5554 18.9818 27.2496 21.4398L26.2012 28.7211C26.2012 28.7211 26.1139 29.7878 25.3275 29.9733C24.5412 30.1588 23.3618 29.324 23.1433 29.1385C22.9686 28.9994 19.867 26.9123 18.7749 25.892C18.4691 25.6138 18.1196 25.0572 18.8186 24.408L23.4054 19.7702C23.9296 19.2137 24.4538 17.9151 22.2696 19.4919L16.1539 23.8978C16.1539 23.8978 15.4549 24.3616 14.1444 23.9442L11.305 23.0166C11.305 23.0166 10.2565 22.321 12.0476 21.6253C16.416 19.4455 21.7891 17.2194 26.5507 15.1324Z" fill="white"/>
<path id="Vector (Stroke)" fill-rule="evenodd" clip-rule="evenodd" d="M25.7875 13.2838L26.5507 15.1324C25.3895 15.6414 24.192 16.1586 22.9815 16.6814C19.443 18.2097 15.7939 19.7857 12.62 21.3422C12.5766 21.3635 12.5332 21.3848 12.49 21.406C12.4327 21.4342 12.3756 21.4624 12.3187 21.4906C12.2279 21.5355 12.1375 21.5804 12.0476 21.6253C11.9222 21.674 11.8107 21.7227 11.7118 21.7712C10.3982 22.415 11.305 23.0166 11.305 23.0166C10.1992 24.6832 10.1982 24.6825 10.1972 24.6818L10.1951 24.6804L10.1908 24.6776L10.1819 24.6715L10.1625 24.6582C10.1488 24.6488 10.1338 24.6381 10.1175 24.6263C10.0851 24.6028 10.047 24.5739 10.0048 24.5397C9.92254 24.4731 9.81442 24.378 9.70021 24.2544C9.50069 24.0384 9.12806 23.5699 9.02578 22.8718C8.90557 22.0514 9.21058 21.3059 9.7201 20.7649C10.1413 20.3177 10.6862 20.0179 11.2312 19.7975C14.5721 18.1345 18.4934 16.441 22.2297 14.8274C23.43 14.309 24.6111 13.7989 25.7478 13.3007C25.761 13.2949 25.7742 13.2893 25.7875 13.2838ZM11.305 23.0166L10.1992 24.6832C10.3495 24.7829 10.5125 24.8618 10.6839 24.9178L13.5234 25.8453L13.5375 25.8499C14.5091 26.1593 15.3473 26.168 16.0108 26.043C16.1964 26.008 16.3637 25.9635 16.5119 25.915C16.7081 26.627 17.1445 27.1102 17.4178 27.3612C18.0782 27.9762 19.2318 28.8242 20.141 29.4734C20.6181 29.814 21.0643 30.1254 21.3988 30.358C21.4759 30.4116 21.5428 30.4582 21.6003 30.4982C21.8055 30.641 21.8922 30.7013 21.8998 30.7054C22.1461 30.9057 22.6033 31.2234 23.1333 31.4865C23.5966 31.7164 24.6537 32.1871 25.7867 31.9199C27.0923 31.6118 27.6808 30.5889 27.9069 30.0434C28.0307 29.7446 28.0988 29.4724 28.1368 29.281C28.1565 29.1823 28.1697 29.0972 28.1785 29.0308C28.1815 29.0083 28.184 28.9878 28.1861 28.9693L29.2292 21.7248C29.2299 21.7202 29.2305 21.7156 29.2312 21.7109C29.2323 21.7029 29.2333 21.6948 29.2343 21.6867C29.384 20.4839 29.5555 19.3226 29.6976 18.3652C29.7067 18.3039 29.7158 18.2428 29.7248 18.182C29.8459 17.3672 29.9579 16.6138 29.9866 16.2103C30.0406 15.5317 29.9446 14.6995 29.3826 13.9986C28.8023 13.275 28.0244 13.0614 27.5045 13.0134C27.0007 12.9669 26.5622 13.0523 26.3107 13.115C26.1721 13.1495 26.0552 13.1863 25.9686 13.216C25.9248 13.231 25.8873 13.2448 25.8571 13.2563C25.8419 13.262 25.8285 13.2673 25.8169 13.2719L25.8008 13.2783L25.7938 13.2812L25.7905 13.2825L25.789 13.2832C25.7882 13.2835 25.7875 13.2838 26.5507 15.1324C26.5507 15.1324 28.1233 14.4832 27.9923 16.06C27.9711 16.3754 27.8674 17.0737 27.7313 17.9903C27.5873 18.9607 27.4069 20.1757 27.2496 21.4398L26.2012 28.7211C26.2012 28.7211 26.1139 29.7878 25.3276 29.9733C24.5412 30.1588 23.3618 29.324 23.1433 29.1385C23.1073 29.1098 22.9464 28.998 22.7042 28.8297C21.7735 28.183 19.6416 26.7017 18.7749 25.8921C18.4884 25.6313 18.1635 25.1262 18.6989 24.5293C18.7348 24.4893 18.7746 24.4488 18.8186 24.408L23.4055 19.7702C23.8846 19.2616 24.3637 18.133 22.7749 19.1466C22.7687 19.1506 22.7624 19.1546 22.7561 19.1586C22.6113 19.2515 22.4497 19.362 22.2697 19.492L16.1539 23.8978C16.1539 23.8978 15.455 24.3616 14.1445 23.9442L11.305 23.0166ZM16.5121 24.4376L16.1539 23.8978C16.2892 24.1017 16.4079 24.2806 16.5121 24.4376C16.5121 24.4376 16.512 24.4376 16.5121 24.4376Z" fill="black"/>
</g>
<defs>
<filter id="filter0_i_117_40" x="0" y="0" width="44" height="44" filterUnits="userSpaceOnUse" color-interpolation-filters="sRGB">
<feFlood flood-opacity="0" result="BackgroundImageFix"/>
<feBlend mode="normal" in="SourceGraphic" in2="BackgroundImageFix" result="shape"/>
<feColorMatrix in="SourceAlpha" type="matrix" values="0 0 0 0 0 0 0 0 0 0 0 0 0 0 0 0 0 0 127 0" result="hardAlpha"/>
<feOffset dx="-4" dy="-4"/>
<feComposite in2="hardAlpha" operator="arithmetic" k2="-1" k3="1"/>
<feColorMatrix type="matrix" values="0 0 0 0 0 0 0 0 0 0 0 0 0 0 0 0 0 0 0.25 0"/>
<feBlend mode="normal" in2="shape" result="effect1_innerShadow_117_40"/>
</filter>
</defs>
</svg>
