<svg width="44" height="44" viewBox="0 0 44 44" fill="none" xmlns="http://www.w3.org/2000/svg">
<g id="Group 30">
<g id="Group 28">
<g id="Ellipse 2">
<g filter="url(#filter0_i_20_721)">
<circle cx="22" cy="22" r="22" fill="#4DA154"/>
</g>
<circle cx="22" cy="22" r="20.5" stroke="black" stroke-width="3"/>
</g>
</g>
<g id="Page-1">
<g id="Dribbble-Light-Preview">
<g id="icons">
<g id="twitter-[#154]">
<mask id="path-3-outside-1_20_721" maskUnits="userSpaceOnUse" x="10" y="13" width="23" height="19" fill="black">
<rect fill="white" x="10" y="13" width="23" height="19"/>
<path fill-rule="evenodd" clip-rule="evenodd" d="M18.661 30C25.4533 30 29.1685 24.2283 29.1685 19.2236C29.1685 19.0593 29.1685 18.8963 29.1577 18.7338C29.8804 18.1985 30.5041 17.5338 31 16.7732C30.3268 17.0797 29.6113 17.2806 28.8796 17.3692C29.65 16.8957 30.2269 16.1518 30.5032 15.274C29.7778 15.7152 28.9849 16.0266 28.1578 16.1937C26.7592 14.6688 24.4201 14.595 22.9324 16.0293C21.9739 16.9542 21.5662 18.3332 21.8641 19.6485C18.895 19.4952 16.1284 18.0572 14.2528 15.6915C13.2727 17.4222 13.774 19.6353 15.3967 20.7466C14.809 20.7291 14.2339 20.5668 13.72 20.2733V20.3214C13.7209 22.124 14.9602 23.6762 16.6828 24.0334C16.1392 24.1857 15.5686 24.2078 15.016 24.098C15.4993 25.6413 16.8862 26.6983 18.4657 26.7288C17.158 27.7829 15.5425 28.3552 13.8793 28.3534C13.5859 28.3525 13.2925 28.3349 13 28.2989C14.6893 29.4102 16.654 30 18.661 29.9973"/>
</mask>
<path fill-rule="evenodd" clip-rule="evenodd" d="M18.661 30C25.4533 30 29.1685 24.2283 29.1685 19.2236C29.1685 19.0593 29.1685 18.8963 29.1577 18.7338C29.8804 18.1985 30.5041 17.5338 31 16.7732C30.3268 17.0797 29.6113 17.2806 28.8796 17.3692C29.65 16.8957 30.2269 16.1518 30.5032 15.274C29.7778 15.7152 28.9849 16.0266 28.1578 16.1937C26.7592 14.6688 24.4201 14.595 22.9324 16.0293C21.9739 16.9542 21.5662 18.3332 21.8641 19.6485C18.895 19.4952 16.1284 18.0572 14.2528 15.6915C13.2727 17.4222 13.774 19.6353 15.3967 20.7466C14.809 20.7291 14.2339 20.5668 13.72 20.2733V20.3214C13.7209 22.124 14.9602 23.6762 16.6828 24.0334C16.1392 24.1857 15.5686 24.2078 15.016 24.098C15.4993 25.6413 16.8862 26.6983 18.4657 26.7288C17.158 27.7829 15.5425 28.3552 13.8793 28.3534C13.5859 28.3525 13.2925 28.3349 13 28.2989C14.6893 29.4102 16.654 30 18.661 29.9973" fill="white"/>
<path d="M29.1577 18.7338L27.9672 17.1267C27.4203 17.5319 27.117 18.1874 27.1621 18.8665L29.1577 18.7338ZM31 16.7732L32.6753 17.8656C33.1612 17.1204 33.0965 16.1439 32.5166 15.4694C31.9367 14.7949 30.981 14.5844 30.1714 14.9529L31 16.7732ZM28.8796 17.3692L27.8323 15.6653C27.0316 16.1575 26.6816 17.1409 26.9913 18.0283C27.301 18.9157 28.1869 19.4677 29.12 19.3547L28.8796 17.3692ZM30.5032 15.274L32.4109 15.8745C32.661 15.0799 32.3925 14.2135 31.7368 13.6997C31.0811 13.186 30.1756 13.1324 29.4639 13.5653L30.5032 15.274ZM28.1578 16.1937L26.6839 17.5456C27.1576 18.062 27.8669 18.2928 28.5538 18.1541L28.1578 16.1937ZM22.9324 16.0293L21.5442 14.5895L21.5437 14.5901L22.9324 16.0293ZM21.8641 19.6485L21.761 21.6458C22.3864 21.6781 22.9907 21.4156 23.394 20.9366C23.7973 20.4576 23.953 19.8174 23.8147 19.2067L21.8641 19.6485ZM14.2528 15.6915L15.82 14.449C15.4067 13.9276 14.7612 13.646 14.0979 13.6975C13.4346 13.749 12.8403 14.127 12.5125 14.7059L14.2528 15.6915ZM15.3967 20.7466L15.337 22.7458C16.2244 22.7722 17.023 22.2106 17.2982 21.3666C17.5734 20.5226 17.2592 19.5982 16.5268 19.0965L15.3967 20.7466ZM13.72 20.2733L14.7119 18.5366C14.0929 18.1831 13.3325 18.1857 12.716 18.5436C12.0994 18.9015 11.72 19.5604 11.72 20.2733H13.72ZM13.72 20.3214H11.72L11.72 20.3224L13.72 20.3214ZM16.6828 24.0334L17.2224 25.9593C18.1105 25.7105 18.7133 24.8865 18.6816 23.9647C18.6499 23.043 17.992 22.2624 17.0889 22.0751L16.6828 24.0334ZM15.016 24.098L15.4059 22.1364C14.7135 21.9987 13.9997 22.2364 13.528 22.7616C13.0563 23.2869 12.8964 24.0219 13.1074 24.6957L15.016 24.098ZM18.4657 26.7288L19.7208 28.2859C20.3756 27.7581 20.6302 26.8772 20.3581 26.0815C20.0859 25.2858 19.3451 24.7454 18.5043 24.7292L18.4657 26.7288ZM13.8793 28.3534L13.873 30.3534L13.8771 30.3534L13.8793 28.3534ZM13 28.2989L13.2443 26.3139C12.3221 26.2004 11.4432 26.737 11.1227 27.6091C10.8023 28.4812 11.1246 29.4592 11.9008 29.9698L13 28.2989ZM18.661 32C26.8313 32 31.1685 25.0379 31.1685 19.2236H27.1685C27.1685 23.4186 24.0753 28 18.661 28V32ZM31.1685 19.2236C31.1685 19.0706 31.1692 18.841 31.1533 18.6012L27.1621 18.8665C27.1678 18.9516 27.1685 19.0481 27.1685 19.2236H31.1685ZM30.3482 20.3409C31.2648 19.6619 32.0518 18.822 32.6753 17.8656L29.3247 15.6809C28.9564 16.2456 28.496 16.735 27.9672 17.1267L30.3482 20.3409ZM30.1714 14.9529C29.6843 15.1746 29.1672 15.3198 28.6392 15.3837L29.12 19.3547C30.0554 19.2414 30.9693 18.9847 31.8286 18.5935L30.1714 14.9529ZM29.9269 19.0731C31.1148 18.343 31.9926 17.2036 32.4109 15.8745L28.5955 14.6735C28.4612 15.1 28.1852 15.4484 27.8323 15.6653L29.9269 19.0731ZM29.4639 13.5653C28.9345 13.8872 28.359 14.1126 27.7618 14.2333L28.5538 18.1541C29.6108 17.9406 30.6211 17.5432 31.5425 16.9828L29.4639 13.5653ZM29.6317 14.8418C27.4753 12.4908 23.8433 12.3729 21.5442 14.5895L24.3206 17.4691C24.9969 16.817 26.0431 16.8469 26.6839 17.5456L29.6317 14.8418ZM21.5437 14.5901C20.075 16.0072 19.4632 18.1021 19.9135 20.0902L23.8147 19.2067C23.6692 18.5642 23.8728 17.9012 24.3211 17.4686L21.5437 14.5901ZM21.9672 17.6511C19.5818 17.528 17.3449 16.3723 15.82 14.449L12.6856 16.934C14.9119 19.7421 18.2082 21.4625 21.761 21.6458L21.9672 17.6511ZM12.5125 14.7059C11.0294 17.3248 11.7724 20.6886 14.2666 22.3968L16.5268 19.0965C15.7756 18.5821 15.516 17.5195 15.9931 16.6771L12.5125 14.7059ZM15.4564 18.7475C15.1982 18.7398 14.943 18.6686 14.7119 18.5366L12.7281 22.01C13.5248 22.4651 14.4198 22.7184 15.337 22.7458L15.4564 18.7475ZM11.72 20.2733V20.3214H15.72V20.2733H11.72ZM11.72 20.3224C11.7214 23.039 13.5936 25.4354 16.2767 25.9918L17.0889 22.0751C16.3268 21.9171 15.7204 21.2091 15.72 20.3204L11.72 20.3224ZM16.1432 22.1076C15.9018 22.1752 15.6496 22.1848 15.4059 22.1364L14.6261 26.0596C15.4876 26.2308 16.3766 26.1962 17.2224 25.9593L16.1432 22.1076ZM13.1074 24.6957C13.8397 27.0341 15.9611 28.6809 18.4271 28.7284L18.5043 24.7292C17.8113 24.7158 17.1589 24.2485 16.9246 23.5003L13.1074 24.6957ZM17.2106 25.1717C16.255 25.9419 15.0822 26.3547 13.8815 26.3534L13.8771 30.3534C16.0028 30.3558 18.061 29.6239 19.7208 28.2859L17.2106 25.1717ZM13.8856 26.3534C13.6678 26.3527 13.454 26.3397 13.2443 26.3139L12.7557 30.284C13.131 30.3301 13.504 30.3522 13.873 30.3534L13.8856 26.3534ZM11.9008 29.9698C13.9144 31.2944 16.2617 32.0006 18.6638 31.9973L18.6582 27.9973C17.0463 27.9995 15.4642 27.5261 14.0992 26.6281L11.9008 29.9698Z" fill="black" mask="url(#path-3-outside-1_20_721)"/>
</g>
</g>
</g>
</g>
</g>
<defs>
<filter id="filter0_i_20_721" x="0" y="0" width="44" height="44" filterUnits="userSpaceOnUse" color-interpolation-filters="sRGB">
<feFlood flood-opacity="0" result="BackgroundImageFix"/>
<feBlend mode="normal" in="SourceGraphic" in2="BackgroundImageFix" result="shape"/>
<feColorMatrix in="SourceAlpha" type="matrix" values="0 0 0 0 0 0 0 0 0 0 0 0 0 0 0 0 0 0 127 0" result="hardAlpha"/>
<feOffset dx="-4" dy="-4"/>
<feComposite in2="hardAlpha" operator="arithmetic" k2="-1" k3="1"/>
<feColorMatrix type="matrix" values="0 0 0 0 0 0 0 0 0 0 0 0 0 0 0 0 0 0 0.25 0"/>
<feBlend mode="normal" in2="shape" result="effect1_innerShadow_20_721"/>
</filter>
</defs>
</svg>
