<svg width="20" height="20" viewBox="0 0 20 20" fill="none" xmlns="http://www.w3.org/2000/svg">
<g id="wallet-75 1" clip-path="url(#clip0_122_69)">
<path id="Vector" d="M17.5 15V15.8333C17.5 16.2754 17.3244 16.6993 17.0118 17.0118C16.6993 17.3244 16.2754 17.5 15.8333 17.5H4.16667C3.72464 17.5 3.30072 17.3244 2.98816 17.0118C2.67559 16.6993 2.5 16.2754 2.5 15.8333V4.16667C2.5 3.72464 2.67559 3.30072 2.98816 2.98816C3.30072 2.67559 3.72464 2.5 4.16667 2.5H15.8333C16.2754 2.5 16.6993 2.67559 17.0118 2.98816C17.3244 3.30072 17.5 3.72464 17.5 4.16667V5H10C9.55797 5 9.13405 5.17559 8.82149 5.48816C8.50893 5.80072 8.33333 6.22464 8.33333 6.66667V13.3333C8.33333 13.7754 8.50893 14.1993 8.82149 14.5118C9.13405 14.8244 9.55797 15 10 15M10 13.3333H18.3333V6.66667H10M13.3333 11.25C13.0018 11.25 12.6839 11.1183 12.4494 10.8839C12.215 10.6495 12.0833 10.3315 12.0833 10C12.0833 9.66848 12.215 9.35054 12.4494 9.11612C12.6839 8.8817 13.0018 8.75 13.3333 8.75C13.6649 8.75 13.9828 8.8817 14.2172 9.11612C14.4516 9.35054 14.5833 9.66848 14.5833 10C14.5833 10.3315 14.4516 10.6495 14.2172 10.8839C13.9828 11.1183 13.6649 11.25 13.3333 11.25Z" fill="white"/>
<path id="Vector (Stroke)" fill-rule="evenodd" clip-rule="evenodd" d="M18.3333 6.66667V13.3333H10V6.66667H18.3333ZM17.5 4.16667C17.5 3.7302 17.3288 3.31138 17.0236 3C17.0197 2.99603 17.0158 2.99209 17.0118 2.98816C16.6993 2.67559 16.2754 2.5 15.8333 2.5H4.16667C3.72464 2.5 3.30072 2.67559 2.98816 2.98816C2.67559 3.30072 2.5 3.72464 2.5 4.16667V15.8333C2.5 16.2754 2.67559 16.6993 2.98816 17.0118C3.30072 17.3244 3.72464 17.5 4.16667 17.5H15.8333C16.2754 17.5 16.6993 17.3244 17.0118 17.0118C17.3244 16.6993 17.5 16.2754 17.5 15.8333V15H10C9.55797 15 9.13405 14.8244 8.82149 14.5118C8.50893 14.1993 8.33333 13.7754 8.33333 13.3333V6.66667C8.33333 6.22464 8.50893 5.80072 8.82149 5.48816C9.13405 5.17559 9.55797 5 10 5H17.5V4.16667ZM19.4393 15H19.5V15.8333C19.5 16.8058 19.1137 17.7384 18.4261 18.4261C17.7384 19.1137 16.8058 19.5 15.8333 19.5H4.16667C3.19421 19.5 2.26158 19.1137 1.57394 18.4261C0.886309 17.7384 0.5 16.8058 0.5 15.8333V4.16667C0.5 3.19421 0.886309 2.26157 1.57394 1.57394C2.26157 0.886309 3.19421 0.5 4.16667 0.5H15.8333C16.8058 0.5 17.7384 0.886309 18.4261 1.57394C19.1137 2.26158 19.5 3.19421 19.5 4.16667V5C19.5 5.01394 19.4999 5.02784 19.4996 5.04171C20.0045 5.40474 20.3333 5.9973 20.3333 6.66667V13.3333C20.3333 14.029 19.9782 14.6417 19.4393 15ZM12.4494 10.8839C12.6839 11.1183 13.0018 11.25 13.3333 11.25C13.6649 11.25 13.9828 11.1183 14.2172 10.8839C14.4516 10.6495 14.5833 10.3315 14.5833 10C14.5833 9.66848 14.4516 9.35054 14.2172 9.11612C13.9828 8.8817 13.6649 8.75 13.3333 8.75C13.0018 8.75 12.6839 8.8817 12.4494 9.11612C12.215 9.35054 12.0833 9.66848 12.0833 10C12.0833 10.3315 12.215 10.6495 12.4494 10.8839Z" fill="black"/>
</g>
<defs>
<clipPath id="clip0_122_69">
<rect width="20" height="20" fill="white"/>
</clipPath>
</defs>
</svg>
