<svg width="40" height="40" viewBox="0 0 40 40" fill="none" xmlns="http://www.w3.org/2000/svg">
<path d="M18.1299 12.0059L18.4979 11.9959H33.4979C35.1578 11.9958 36.7549 12.6307 37.9617 13.7705C39.1685 14.9103 39.8934 16.4686 39.9879 18.1259L39.9979 18.4959V33.4959C39.998 35.1562 39.3628 36.7536 38.2225 37.9604C37.0823 39.1672 35.5235 39.8919 33.8659 39.9859L33.4979 39.9959H18.4979C16.8376 39.996 15.2402 39.3608 14.0334 38.2206C12.8266 37.0803 12.1019 35.5215 12.0079 33.8639L11.9979 33.4979V18.4979C11.9978 16.8376 12.633 15.2402 13.7732 14.0334C14.9135 12.8266 16.4723 12.1019 18.1299 12.0079V12.0059ZM33.4979 14.9959H18.4979C17.6195 14.9959 16.7733 15.3262 16.1271 15.9213C15.481 16.5163 15.0822 17.3325 15.0099 18.2079L14.9979 18.4959V33.4959C14.998 34.3746 15.3286 35.2211 15.924 35.8673C16.5194 36.5135 17.3361 36.9121 18.2119 36.9839L18.4979 36.9959H33.4979C34.3766 36.9958 35.2231 36.6652 35.8693 36.0698C36.5155 35.4744 36.9141 34.6577 36.9859 33.7819L36.9979 33.4959V18.4959C36.9979 17.5676 36.6291 16.6774 35.9728 16.021C35.3164 15.3646 34.4262 14.9959 33.4979 14.9959ZM25.9979 17.9979C26.3957 17.9979 26.7772 18.1559 27.0586 18.4372C27.3399 18.7185 27.4979 19.1001 27.4979 19.4979V24.4939H32.4979C32.8957 24.4939 33.2773 24.6519 33.5586 24.9332C33.8399 25.2145 33.9979 25.5961 33.9979 25.9939C33.9979 26.3917 33.8399 26.7732 33.5586 27.0546C33.2773 27.3359 32.8957 27.4939 32.4979 27.4939H27.4979V32.4979C27.4979 32.8957 27.3399 33.2773 27.0586 33.5586C26.7772 33.8399 26.3957 33.9979 25.9979 33.9979C25.6001 33.9979 25.2185 33.8399 24.9372 33.5586C24.6559 33.2773 24.4979 32.8957 24.4979 32.4979V27.4939H19.4979C19.1001 27.4939 18.7185 27.3359 18.4372 27.0546C18.1559 26.7732 17.9979 26.3917 17.9979 25.9939C17.9979 25.5961 18.1559 25.2145 18.4372 24.9332C18.7185 24.6519 19.1001 24.4939 19.4979 24.4939H24.4979V19.4979C24.4979 19.1001 24.6559 18.7185 24.9372 18.4372C25.2185 18.1559 25.6001 17.9979 25.9979 17.9979ZM27.1619 4.46389L27.2659 4.81789L28.6519 9.99389H25.5459L24.3699 5.59389C24.2511 5.14967 24.0459 4.73322 23.766 4.36834C23.4862 4.00347 23.1372 3.69731 22.7389 3.46737C22.3407 3.23743 21.9011 3.08821 21.4452 3.02824C20.9893 2.96828 20.526 2.99874 20.0819 3.11789L5.59389 7.00189C4.74815 7.22868 4.01813 7.76426 3.54791 8.50291C3.07769 9.24156 2.90142 10.1296 3.05389 10.9919L3.11789 11.2879L7.00189 25.7759C7.18407 26.4567 7.56753 27.0666 8.10209 27.5259C8.63666 27.9852 9.29741 28.2724 9.99789 28.3499V31.3619C8.69754 31.2844 7.45042 30.8182 6.41808 30.0237C5.38575 29.2292 4.61577 28.1431 4.20789 26.9059L4.10389 26.5539L0.221889 12.0639C-0.208105 10.4606 -0.00843865 8.75363 0.779945 7.29289C1.56833 5.83214 2.88569 4.72837 4.46189 4.20789L4.81789 4.10389L19.3059 0.221889C20.9091 -0.208105 22.6162 -0.00843865 24.0769 0.779945C25.5376 1.56833 26.6414 2.88569 27.1619 4.46189V4.46389Z" fill="white"/>
</svg>
