<svg width="6" height="10" viewBox="0 0 6 10" fill="none" xmlns="http://www.w3.org/2000/svg">
<path d="M0.501282 9.84197L0.167097 9.51521C0.0615635 9.41135 0.0043952 9.27503 0.0043952 9.12788C0.00439519 8.98074 0.0615635 8.84441 0.167097 8.74055L3.96409 5.00348L0.162695 1.2621C0.0571617 1.15823 4.46687e-08 1.0219 3.82367e-08 0.874755C3.18048e-08 0.727609 0.0571617 0.591288 0.162695 0.487421L0.494687 0.16067C0.712349 -0.0535566 1.06413 -0.0535566 1.27959 0.16067L5.82191 4.61398C5.92745 4.71785 6 4.85417 6 5.00132L6 5.00348C6 5.15063 5.92525 5.28695 5.82191 5.39082L1.29278 9.8398C1.18725 9.94367 1.04434 9.99994 0.894835 9.99994C0.747528 10.0021 0.604617 9.94583 0.501282 9.84197Z" fill="white"/>
</svg>
