<svg width="105" height="105" viewBox="0 0 105 105" fill="none" xmlns="http://www.w3.org/2000/svg">
<path fill-rule="evenodd" clip-rule="evenodd" d="M28.2236 75.687H38.0001C40.3019 75.687 41.4527 75.687 42.4799 75.4026C43.6061 75.0679 44.6332 74.4742 45.4871 73.6572C46.2713 72.9101 46.8372 71.9198 47.9535 69.9663L47.9541 69.9651L47.9869 69.9077L60.6667 47.4935C61.7929 45.5258 62.3498 44.5357 62.5973 43.4962C62.8695 42.3701 62.8695 41.182 62.5973 40.0559C62.3516 39.0242 61.7891 38.0413 60.6797 36.1029L60.6544 36.0587L55.6918 27.396C54.6647 25.5892 54.1449 24.6858 53.4891 24.3517C52.7837 23.9928 51.9421 23.9928 51.2367 24.3517C50.5808 24.6858 50.0611 25.5892 49.0339 27.396L24.8947 69.9448C23.8799 71.7269 23.3725 72.6182 23.4096 73.348C23.4591 74.1402 23.8675 74.8579 24.5358 75.2912C25.1545 75.687 26.1693 75.687 28.2236 75.687ZM76.6974 75.687H62.6888C60.6222 75.687 59.5827 75.687 58.9762 75.2912C58.308 74.8579 57.8996 74.1281 57.8501 73.3359C57.8132 72.6115 58.3247 71.7287 59.3481 69.9622L59.3483 69.9617L59.3723 69.9204L66.3643 57.9163C67.3915 56.1467 67.9112 55.268 68.5547 54.9339C69.2598 54.575 70.0895 54.575 70.7945 54.9339C71.4335 55.2592 71.931 56.1006 72.9161 57.7663L72.9175 57.7688L72.9974 57.904L80.0144 69.908L80.0282 69.9319C80.0577 69.9829 80.0867 70.033 80.1157 70.0825L80.1158 70.0826C81.0883 71.761 81.5847 72.6175 81.5491 73.3239C81.5116 74.1154 81.091 74.8459 80.4229 75.2792C79.8038 75.687 78.7641 75.687 76.6974 75.687H76.6974Z" fill="white"/>
</svg>
