<svg width="476" height="718" viewBox="0 0 476 718" fill="none" xmlns="http://www.w3.org/2000/svg">
<g style="mix-blend-mode:overlay" clip-path="url(#clip0_825_6786)">
<path opacity="0.5" d="M275.274 138.765L275.436 138.859L315.672 162.081L315.672 208.698L315.511 208.792L275.274 232.014L275.113 231.92L234.877 208.698L234.877 162.081L235.038 161.987L275.274 138.765ZM315.04 162.443L275.274 139.504L235.508 162.443L235.508 208.322L275.274 231.262L315.04 208.322L315.04 162.443Z" fill="#D0D9DD"/>
<path opacity="0.5" d="M-5.27653 23.1273L-5.11527 23.2213L35.1211 46.4429L35.1211 93.0605L34.9598 93.1545L-5.27654 116.376L-5.43781 116.282L-45.6742 93.0605L-45.6742 46.4429L-45.5129 46.3488L-5.27653 23.1273ZM34.4895 46.8055L-5.27653 23.866L-45.0425 46.8055L-45.0425 92.6844L-5.27654 115.624L34.4895 92.6844L34.4895 46.8055Z" fill="#D0D9DD"/>
<path opacity="0.5" d="M-5.27653 161.892L-5.11527 161.986L35.1211 185.208L35.1211 231.826L34.9598 231.92L-5.27654 255.141L-5.43781 255.047L-45.6742 231.826L-45.6742 185.208L-45.5129 185.114L-5.27653 161.892ZM34.4895 185.571L-5.27653 162.631L-45.0425 185.571L-45.0425 231.45L-5.27654 254.389L34.4895 231.45L34.4895 185.571Z" fill="#D0D9DD"/>
<path opacity="0.5" d="M-5.27653 254.389L-5.11527 254.483L35.1211 277.705L35.1211 324.322L34.9598 324.416L-5.27654 347.638L-5.43781 347.544L-45.6742 324.322L-45.6742 277.705L-45.5129 277.611L-5.27653 254.389ZM34.4895 278.067L-5.27653 255.128L-45.0425 278.067L-45.0425 323.946L-5.27654 346.886L34.4895 323.946L34.4895 278.067Z" fill="#D0D9DD"/>
<g opacity="0.5">
<path d="M-5.27653 578.147L35.1211 601.463L35.1211 648.08L34.9598 648.174L-5.27654 671.396L-45.6742 648.08L-45.6742 601.463L-45.5129 601.369L-5.27653 578.147ZM34.4895 601.825L-5.27653 578.886L-45.0425 601.825L-45.0425 647.704L-5.27654 670.644L34.4895 647.704L34.4895 601.825Z" fill="#D0D9DD"/>
</g>
<path opacity="0.5" d="M34.7977 46.2552L34.9589 46.3493L75.1953 69.5708L75.1953 116.188L75.0341 116.282L34.7977 139.504L34.6364 139.41L-5.59996 116.188L-5.59995 69.5708L-5.43869 69.4768L34.7977 46.2552ZM74.5637 69.9334L34.7977 46.994L-4.96836 69.9334L-4.96837 115.812L34.7977 138.752L74.5637 115.812L74.5637 69.9334Z" fill="#D0D9DD"/>
<path opacity="0.5" d="M34.7977 92.5101L34.9589 92.6042L75.1953 115.826L75.1953 162.443L75.0341 162.537L34.7977 185.759L34.6364 185.665L-5.59996 162.443L-5.59995 115.826L-5.43869 115.732L34.7977 92.5101ZM74.5637 116.188L34.7977 93.2488L-4.96836 116.188L-4.96837 162.067L34.7977 185.007L74.5637 162.067L74.5637 116.188Z" fill="#D0D9DD"/>
<path opacity="0.5" d="M34.7977 231.262L34.9589 231.356L75.1953 254.577L75.1953 301.195L75.0341 301.289L34.7977 324.51L34.6364 324.416L-5.59996 301.195L-5.59995 254.577L-5.43869 254.483L34.7977 231.262ZM74.5637 254.94L34.7977 232L-4.96836 254.94L-4.96837 300.819L34.7977 323.758L74.5637 300.819L74.5637 254.94Z" fill="#D0D9DD"/>
<path opacity="0.5" d="M34.7977 277.516L34.9589 277.611L75.1953 300.832L75.1953 347.45L75.0341 347.544L34.7977 370.765L-5.59996 347.45L-5.59995 300.832L-5.43869 300.738L34.7977 277.516ZM74.5637 301.195L34.7977 278.255L-4.96836 301.195L-4.96837 347.074L34.7977 370.013L74.5637 347.074L74.5637 301.195Z" fill="#D0D9DD"/>
<path opacity="0.5" d="M34.7977 416.268L75.1953 439.583L75.1953 486.201L75.0341 486.295L34.7977 509.517L-5.59996 486.201L-5.59995 439.583L-5.43869 439.489L34.7977 416.268ZM74.5637 439.946L34.7977 417.007L-4.96836 439.946L-4.96837 485.825L34.7977 508.764L74.5637 485.825L74.5637 439.946Z" fill="#D0D9DD"/>
<path opacity="0.5" d="M155.036 23.1273L155.197 23.2213L195.434 46.4429L195.434 93.0605L195.272 93.1545L155.036 116.376L154.875 116.282L114.638 93.0605L114.638 46.4429L114.8 46.3488L155.036 23.1273ZM194.802 46.8055L155.036 23.866L115.27 46.8055L115.27 92.6844L155.036 115.624L194.802 92.6844L194.802 46.8055Z" fill="#D0D9DD"/>
<path opacity="0.5" d="M155.036 161.892L155.197 161.986L195.434 185.208L195.434 231.826L195.272 231.92L155.036 255.141L154.875 255.047L114.638 231.826L114.638 185.208L114.8 185.114L155.036 161.892ZM194.802 185.571L155.036 162.631L115.27 185.571L115.27 231.45L155.036 254.389L194.802 231.45L194.802 185.571Z" fill="#D0D9DD"/>
<path opacity="0.5" d="M155.036 346.886L155.197 346.98L195.434 370.201L195.434 416.819L195.272 416.913L155.036 440.134L114.638 416.819L114.638 370.201L114.8 370.107L155.036 346.886ZM194.802 370.564L155.036 347.624L115.27 370.564L115.27 416.443L155.036 439.382L194.802 416.443L194.802 370.564Z" fill="#D0D9DD"/>
<path opacity="0.5" d="M195.126 -7.98256e-05L195.287 0.0938609L235.523 23.3154L235.523 69.933L235.362 70.0271L195.126 93.2485L194.965 93.1545L154.728 69.933L154.728 23.3154L154.889 23.2214L195.126 -7.98256e-05ZM234.892 23.6781L195.126 0.738583L155.36 23.6781L155.36 69.557L195.126 92.4964L234.892 69.557L234.892 23.6781Z" fill="#D0D9DD"/>
<path opacity="0.5" d="M195.126 92.5101L195.287 92.6042L235.523 115.826L235.523 162.443L235.362 162.537L195.126 185.759L194.965 185.665L154.728 162.443L154.728 115.826L154.889 115.732L195.126 92.5101ZM234.892 116.188L195.126 93.2488L155.36 116.188L155.36 162.067L195.126 185.007L234.892 162.067L234.892 116.188Z" fill="#D0D9DD"/>
<path opacity="0.5" d="M195.126 185.007L195.287 185.101L235.523 208.322L235.523 254.94L235.362 255.034L195.126 278.255L194.965 278.161L154.728 254.94L154.728 208.322L154.889 208.228L195.126 185.007ZM234.892 208.685L195.126 185.745L155.36 208.685L155.36 254.564L195.126 277.503L234.892 254.564L234.892 208.685Z" fill="#D0D9DD"/>
<path opacity="0.5" d="M195.126 231.262L195.287 231.356L235.523 254.577L235.523 301.195L235.362 301.289L195.126 324.51L194.965 324.416L154.728 301.195L154.728 254.577L154.889 254.483L195.126 231.262ZM234.892 254.94L195.126 232L155.36 254.94L155.36 300.819L195.126 323.758L234.892 300.819L234.892 254.94Z" fill="#D0D9DD"/>
<path opacity="0.5" d="M195.126 370.013L235.523 393.329L235.523 439.946L235.362 440.04L195.126 463.262L154.728 439.946L154.728 393.329L154.889 393.235L195.126 370.013ZM234.892 393.691L195.126 370.752L155.36 393.691L155.36 439.57L195.126 462.51L234.892 439.57L234.892 393.691Z" fill="#D0D9DD"/>
<path opacity="0.5" d="M235.2 23.1273L235.361 23.2213L275.598 46.4429L275.598 93.0605L275.436 93.1545L235.2 116.376L235.039 116.282L194.802 93.0605L194.802 46.4429L194.964 46.3488L235.2 23.1273ZM274.966 46.8055L235.2 23.866L195.434 46.8055L195.434 92.6844L235.2 115.624L274.966 92.6844L274.966 46.8055Z" fill="#D0D9DD"/>
<path opacity="0.5" d="M235.2 254.389L235.361 254.483L275.598 277.705L275.598 324.322L275.436 324.416L235.2 347.638L235.039 347.544L194.802 324.322L194.802 277.705L194.964 277.611L235.2 254.389ZM274.966 278.067L235.2 255.128L195.434 278.067L195.434 323.946L235.2 346.886L274.966 323.946L274.966 278.067Z" fill="#D0D9DD"/>
<path opacity="0.5" d="M275.274 46.2552L275.436 46.3493L315.672 69.5708L315.672 116.188L315.511 116.282L275.274 139.504L275.113 139.41L234.877 116.188L234.877 69.5708L235.038 69.4768L275.274 46.2552ZM315.04 69.9334L275.274 46.994L235.508 69.9334L235.508 115.812L275.274 138.752L315.04 115.812L315.04 69.9334Z" fill="#D0D9DD"/>
<path opacity="0.5" d="M315.364 115.638L315.525 115.732L355.762 138.953L355.762 185.571L355.6 185.665L315.364 208.886L315.203 208.792L274.966 185.571L274.966 138.953L275.128 138.859L315.364 115.638ZM355.13 139.316L315.364 116.376L275.598 139.316L275.598 185.195L315.364 208.134L355.13 185.195L355.13 139.316Z" fill="#D0D9DD"/>
<path opacity="0.5" d="M435.602 46.2552L435.764 46.3493L476 69.5708L476 116.188L475.839 116.282L435.602 139.504L435.441 139.41L395.205 116.188L395.205 69.5708L395.366 69.4768L435.602 46.2552ZM475.355 69.9334L435.589 46.994L395.823 69.9334L395.823 115.812L435.589 138.752L475.355 115.812L475.355 69.9334Z" fill="#D0D9DD"/>
<path opacity="0.5" d="M74.8856 23.1273L75.0468 23.2213L115.283 46.4429L115.283 93.0605L115.122 93.1545L74.8856 116.376L74.7243 116.282L34.4879 93.0605L34.4879 46.4429L34.6492 46.3488L74.8856 23.1273ZM114.652 46.8055L74.8856 23.866L35.1196 46.8055L35.1196 92.6844L74.8856 115.624L114.652 92.6844L114.652 46.8055Z" fill="#D0D9DD"/>
<path opacity="0.5" d="M74.8856 69.3827L75.0468 69.4767L115.283 92.6982L115.283 139.316L115.122 139.41L74.8856 162.631L74.7243 162.537L34.4879 139.316L34.4879 92.6982L34.6492 92.6042L74.8856 69.3827ZM114.652 93.0609L74.8856 70.1214L35.1196 93.0608L35.1196 138.94L74.8856 161.879L114.652 138.94L114.652 93.0609Z" fill="#D0D9DD"/>
<path opacity="0.5" d="M74.8856 115.638L75.0468 115.732L115.283 138.953L115.283 185.571L115.122 185.665L74.8856 208.886L74.7243 208.792L34.4879 185.571L34.4879 138.953L34.6492 138.859L74.8856 115.638ZM114.652 139.316L74.8856 116.376L35.1196 139.316L35.1196 185.195L74.8856 208.134L114.652 185.195L114.652 139.316Z" fill="#D0D9DD"/>
<path opacity="0.5" d="M74.8856 254.389L75.0468 254.483L115.283 277.705L115.283 324.322L115.122 324.416L74.8856 347.638L74.7243 347.544L34.4879 324.322L34.4879 277.705L34.6492 277.611L74.8856 254.389ZM114.652 278.067L74.8856 255.128L35.1196 278.067L35.1196 323.946L74.8856 346.886L114.652 323.946L114.652 278.067Z" fill="#D0D9DD"/>
<path opacity="0.5" d="M74.8856 485.651L115.283 508.966L115.283 555.584L115.122 555.678L74.8856 578.899L34.4879 555.584L34.4879 508.966L34.6492 508.872L74.8856 485.651ZM114.652 509.329L74.8856 486.389L35.1196 509.329L35.1196 555.208L74.8856 578.147L114.652 555.208L114.652 509.329Z" fill="#D0D9DD"/>
<path opacity="0.5" d="M74.8856 393.14L115.283 416.456L115.283 463.074L115.122 463.168L74.8856 486.389L34.4879 463.074L34.4879 416.456L34.6492 416.362L74.8856 393.14ZM114.652 416.819L74.8856 393.879L35.1196 416.819L35.1196 462.698L74.8856 485.637L114.652 462.698L114.652 416.819Z" fill="#D0D9DD"/>
<path opacity="0.5" d="M195.126 277.516L195.287 277.611L235.523 300.832L235.523 347.45L235.362 347.544L195.126 370.765L154.728 347.45L154.728 300.832L154.889 300.738L195.126 277.516ZM234.892 301.195L195.126 278.255L155.36 301.195L155.36 347.074L195.126 370.013L234.892 347.074L234.892 301.195Z" fill="#D0D9DD"/>
<path d="M315.363 207.583L315.605 207.718L355.922 230.979L355.922 277.785L355.68 277.919L315.363 301.181L315.121 301.047L274.804 277.785L274.804 230.979L275.046 230.845L315.363 207.583ZM354.968 231.543L315.363 208.698L275.758 231.543L275.758 277.234L315.363 300.08L354.968 277.234L354.968 231.543Z" fill="white"/>
<path d="M34.7985 184.832L35.0404 184.966L75.3574 208.228L75.3574 255.034L75.1155 255.168L34.7985 278.43L34.5566 278.295L-5.76041 255.034L-5.76041 208.228L-5.51848 208.094L34.7985 184.832ZM74.4033 208.792L34.7985 185.947L-4.80621 208.792L-4.80621 254.483L34.7985 277.328L74.4033 254.483L74.4033 208.792Z" fill="white"/>
<path d="M74.8864 346.711L75.1283 346.846L115.445 370.107L115.445 416.913L115.203 417.047L74.8864 440.309L34.3275 416.913L34.3275 370.107L34.5694 369.973L74.8864 346.711ZM114.491 370.671L74.8864 347.826L35.2817 370.671L35.2817 416.362L74.8864 439.208L114.491 416.362L114.491 370.671Z" fill="white"/>
<path d="M74.8864 207.959L75.1283 208.094L115.445 231.355L115.445 278.161L115.203 278.295L74.8864 301.557L74.6445 301.423L34.3275 278.161L34.3275 231.355L34.5694 231.221L74.8864 207.959ZM114.491 231.919L74.8864 209.074L35.2817 231.919L35.2817 277.61L74.8864 300.456L114.491 277.61L114.491 231.919Z" fill="white"/>
<path d="M155.037 254.201L155.279 254.335L195.596 277.597L195.596 324.403L195.354 324.537L155.037 347.799L154.795 347.665L114.478 324.403L114.478 277.597L114.72 277.463L155.037 254.201ZM194.642 278.161L155.037 255.316L115.432 278.161L115.432 323.852L155.037 346.698L194.642 323.852L194.642 278.161Z" fill="white"/>
<path d="M-5.27763 69.1947L-5.03574 69.3289L35.2813 92.5907L35.2813 139.396L35.0394 139.531L-5.27764 162.792L-5.51954 162.658L-45.8365 139.396L-45.8365 92.5907L-45.5946 92.4564L-5.27763 69.1947ZM34.3271 93.1548L-5.27763 70.3094L-44.8824 93.1548L-44.8824 138.846L-5.27764 161.691L34.3271 138.846L34.3271 93.1548Z" fill="white"/>
<path d="M-5.27763 300.456L-5.03574 300.59L35.2813 323.852L35.2813 370.658L35.0394 370.792L-5.27764 394.054L-45.8365 370.658L-45.8365 323.852L-45.5946 323.718L-5.27763 300.456ZM34.3271 324.416L-5.27763 301.571L-44.8824 324.416L-44.8824 370.107L-5.27764 392.952L34.3271 370.107L34.3271 324.416Z" fill="white"/>
<path d="M-5.27763 531.718L35.2813 555.114L35.2813 601.919L35.0394 602.054L-5.27764 625.315L-45.8365 601.919L-45.8365 555.114L-45.5946 554.979L-5.27763 531.718ZM34.3271 555.678L-5.27763 532.832L-44.8824 555.678L-44.8824 601.369L-5.27764 624.214L34.3271 601.369L34.3271 555.678Z" fill="white"/>
<path d="M34.7985 323.584L35.0404 323.718L75.3574 346.98L75.3574 393.786L75.1155 393.92L34.7985 417.182L-5.76041 393.786L-5.76041 346.98L-5.51848 346.846L34.7985 323.584ZM74.4033 347.544L34.7985 324.699L-4.80621 347.544L-4.80621 393.235L34.7985 416.08L74.4033 393.235L74.4033 347.544Z" fill="white"/>
<path d="M34.7985 462.335L75.3574 485.731L75.3574 532.537L75.1155 532.671L34.7985 555.933L-5.76041 532.537L-5.76041 485.731L-5.51848 485.597L34.7985 462.335ZM74.4033 486.295L34.7985 463.45L-4.80621 486.295L-4.80621 531.986L34.7985 554.832L74.4033 531.986L74.4033 486.295Z" fill="white"/>
<path d="M155.037 115.449L155.279 115.584L195.596 138.846L195.596 185.651L195.354 185.786L155.037 209.047L154.795 208.913L114.478 185.651L114.478 138.846L114.72 138.711L155.037 115.449ZM194.642 139.41L155.037 116.564L115.432 139.41L115.432 185.101L155.037 207.946L194.642 185.101L194.642 139.41Z" fill="white"/>
<path d="M195.125 46.0672L195.367 46.2014L235.684 69.4633L235.684 116.269L235.442 116.403L195.125 139.665L194.883 139.531L154.566 116.269L154.566 69.4632L154.808 69.3289L195.125 46.0672ZM234.729 70.0274L195.125 47.1819L155.52 70.0274L155.52 115.718L195.125 138.564L234.729 115.718L234.729 70.0274Z" fill="white"/>
<path d="M235.201 161.704L235.443 161.839L275.76 185.101L275.76 231.906L275.518 232.04L235.201 255.302L234.959 255.168L194.642 231.906L194.642 185.1L194.884 184.966L235.201 161.704ZM274.806 185.665L235.201 162.819L195.596 185.665L195.596 231.355L235.201 254.201L274.806 231.355L274.806 185.665Z" fill="white"/>
<path d="M235.199 300.456L235.441 300.591L275.758 323.852L275.758 370.658L275.516 370.792L235.199 394.054L194.64 370.658L194.64 323.852L194.882 323.718L235.199 300.456ZM274.804 324.417L235.199 301.571L195.594 324.417L195.594 370.107L235.199 392.953L274.804 370.107L274.804 324.417Z" fill="white"/>
<path d="M235.201 392.952L275.76 416.349L275.76 463.154L275.518 463.288L235.201 486.55L194.642 463.154L194.642 416.349L194.884 416.214L235.201 392.952ZM274.806 416.913L235.201 394.067L195.596 416.913L195.596 462.604L235.201 485.449L274.806 462.604L274.806 416.913Z" fill="white"/>
<path d="M275.275 92.3221L275.517 92.4564L315.834 115.718L315.834 162.524L315.592 162.658L275.275 185.92L275.033 185.786L234.716 162.524L234.716 115.718L234.958 115.584L275.275 92.3221ZM314.88 116.282L275.275 93.4368L235.67 116.282L235.67 161.973L275.275 184.819L314.88 161.973L314.88 116.282Z" fill="white"/>
<path d="M355.439 46.0672L355.681 46.2014L395.998 69.4633L395.998 116.269L395.756 116.403L355.439 139.665L355.197 139.531L314.88 116.269L314.88 69.4632L315.122 69.3289L355.439 46.0672ZM395.044 70.0274L355.439 47.1819L315.834 70.0274L315.834 115.718L355.439 138.564L395.044 115.718L395.044 70.0274Z" fill="white"/>
<path d="M395.513 22.9529L395.755 23.0873L436.072 46.349L436.072 93.1547L435.83 93.289L395.513 116.551L395.271 116.416L354.954 93.1547L354.954 46.349L355.196 46.2147L395.513 22.9529ZM435.118 46.9131L395.513 24.0677L355.909 46.9131L355.909 92.604L395.513 115.449L435.118 92.604L435.118 46.9131Z" fill="white"/>
<path opacity="0.5" d="M36.3301 45.7445L36.3301 47.5039L34.7981 48.377L33.2794 47.5039L33.2794 45.7445L34.7981 44.8715L36.3301 45.7445Z" fill="#D0D9DD"/>
<path opacity="0.5" d="M38.4941 90.6971L38.4941 94.968L34.7984 97.1035L31.1027 94.968L31.1027 90.6971L34.7984 88.5751L38.4941 90.6971Z" fill="#D0D9DD"/>
<path opacity="0.5" d="M36.0078 138.348L36.0078 139.732L34.7983 140.43L33.6022 139.732L33.6022 138.348L34.7983 137.65L36.0078 138.348Z" fill="#D0D9DD"/>
<path opacity="0.5" d="M38.7344 182.978L38.7344 187.518L34.7968 189.788L30.8726 187.518L30.8726 182.978L34.7968 180.722L38.7344 182.978Z" fill="#D0D9DD"/>
<path opacity="0.5" d="M35.9258 415.65L35.9258 416.94L34.7969 417.584L33.6814 416.94L33.6815 415.65L34.7969 414.992L35.9258 415.65Z" fill="#D0D9DD"/>
<path opacity="0.5" d="M35.7246 461.959L35.7246 463.034L34.7973 463.571L33.87 463.034L33.87 461.959L34.7973 461.422L35.7246 461.959Z" fill="#D0D9DD"/>
<path opacity="0.5" d="M37.5391 507.126L37.5391 510.296L34.7975 511.88L32.056 510.296L32.056 507.126L34.7975 505.541L37.5391 507.126Z" fill="#D0D9DD"/>
<path opacity="0.5" d="M37.5938 553.301L37.5938 556.524L34.7985 558.136L32.0166 556.524L32.0166 553.301L34.7985 551.689L37.5938 553.301Z" fill="#D0D9DD"/>
<path opacity="0.5" d="M198 44.9655L198 48.2829L195.124 49.9482L192.248 48.2829L192.248 44.9655L195.124 43.3001L198 44.9655Z" fill="#D0D9DD"/>
<path opacity="0.5" d="M196.307 92.1473L196.307 93.5172L195.124 94.2021L193.941 93.5172L193.941 92.1473L195.124 91.4757L196.307 92.1473Z" fill="#D0D9DD"/>
<path opacity="0.5" d="M198.121 183.516L198.121 186.981L195.124 188.713L192.127 186.981L192.127 183.516L195.124 181.797L198.121 183.516Z" fill="#D0D9DD"/>
<path opacity="0.5" d="M198.203 229.677L198.203 233.236L195.126 235.022L192.035 233.236L192.035 229.677L195.126 227.904L198.203 229.677Z" fill="#D0D9DD"/>
<path opacity="0.5" d="M159.418 298.482L159.418 303.532L155.037 306.057L150.669 303.532L150.669 298.482L155.037 295.957L159.418 298.482Z" fill="#D0D9DD"/>
<path opacity="0.5" d="M119.342 321.354L119.342 326.404L114.961 328.929L110.593 326.404L110.593 321.354L114.961 318.829L119.342 321.354Z" fill="#D0D9DD"/>
<path opacity="0.5" d="M196.563 415.462L196.563 417.128L195.125 417.96L193.673 417.128L193.673 415.462L195.125 414.616L196.563 415.462Z" fill="#D0D9DD"/>
<path opacity="0.5" d="M78.4883 113.771L78.4883 117.948L74.8866 120.029L71.2715 117.948L71.2715 113.771L74.8866 111.689L78.4883 113.771Z" fill="#D0D9DD"/>
<path opacity="0.5" d="M76.498 161.1L76.498 162.967L74.8854 163.894L73.2727 162.967L73.2727 161.1L74.8854 160.173L76.498 161.1Z" fill="#D0D9DD"/>
<path opacity="0.5" d="M76.5391 207.261L76.5391 209.168L74.8861 210.135L73.2196 209.168L73.2196 207.261L74.8861 206.294L76.5391 207.261Z" fill="#D0D9DD"/>
<path opacity="0.5" d="M76.6191 253.395L76.6191 255.396L74.8855 256.39L73.1519 255.396L73.1519 253.395L74.8855 252.388L76.6191 253.395Z" fill="#D0D9DD"/>
<path opacity="0.5" d="M76.6074 299.57L76.6074 301.557L74.8872 302.551L73.1536 301.557L73.1536 299.57L74.8872 298.576L76.6074 299.57Z" fill="#D0D9DD"/>
<path opacity="0.5" d="M77.2109 345.408L77.2109 348.081L74.886 349.424L72.561 348.081L72.561 345.408L74.886 344.065L77.2109 345.408Z" fill="#D0D9DD"/>
<path opacity="0.5" d="M237.229 22.3352L237.229 24.6721L235.199 25.854L233.17 24.6721L233.17 22.3352L235.199 21.1533L237.229 22.3352Z" fill="#D0D9DD"/>
<path opacity="0.5" d="M277.762 45.1939L277.762 48.0546L275.275 49.4917L272.803 48.0546L272.803 45.1939L275.275 43.7702L277.762 45.1939Z" fill="#D0D9DD"/>
<path opacity="0.5" d="M277.693 276.268L277.693 279.061L275.274 280.458L272.869 279.061L272.869 276.268L275.274 274.884L277.693 276.268Z" fill="#D0D9DD"/>
<path opacity="0.5" d="M277.439 322.63L277.439 325.115L275.276 326.364L273.126 325.115L273.126 322.63L275.276 321.394L277.439 322.63Z" fill="#D0D9DD"/>
<path opacity="0.5" d="M279.375 413.931L279.375 418.645L275.276 421.009L271.191 418.645L271.191 413.931L275.276 411.581L279.375 413.931Z" fill="#D0D9DD"/>
<path opacity="0.5" d="M236.328 69.033L236.328 70.3358L235.199 70.9805L234.07 70.3358L234.07 69.033L235.199 68.3749L236.328 69.033Z" fill="#D0D9DD"/>
<path opacity="0.5" d="M237.324 253.167L237.324 255.611L235.201 256.833L233.078 255.611L233.078 253.167L235.201 251.945L237.324 253.167Z" fill="#D0D9DD"/>
<path opacity="0.5" d="M236.207 346.16L236.207 347.329L235.199 347.906L234.191 347.329L234.191 346.16L235.199 345.583L236.207 346.16Z" fill="#D0D9DD"/>
<path opacity="0.5" d="M238.104 437.421L238.104 440.779L235.201 442.458L232.298 440.779L232.298 437.421L235.201 435.742L238.104 437.421Z" fill="#D0D9DD"/>
<path opacity="0.5" d="M357.105 91.8651L357.105 93.7991L355.439 94.7661L353.773 93.7991L353.773 91.8651L355.439 90.9115L357.105 91.8651Z" fill="#D0D9DD"/>
<path opacity="0.5" d="M358.18 137.462L358.18 140.632L355.438 142.203L352.697 140.632L352.697 137.462L355.438 135.877L358.18 137.462Z" fill="#D0D9DD"/>
<path opacity="0.5" d="M358.422 183.529L358.422 186.967L355.438 188.687L352.468 186.967L352.468 183.529L355.438 181.81L358.422 183.529Z" fill="#D0D9DD"/>
<path opacity="0.5" d="M318.844 67.677L318.844 71.6927L315.363 73.6938L311.882 71.6927L311.882 67.677L315.363 65.6624L318.844 67.677Z" fill="#D0D9DD"/>
<path opacity="0.5" d="M318.213 114.214L318.213 117.504L315.364 119.156L312.501 117.504L312.501 114.214L315.364 112.562L318.213 114.214Z" fill="#D0D9DD"/>
<path opacity="0.5" d="M317.473 299.355L317.473 301.786L315.363 303.008L313.253 301.786L313.253 299.355L315.363 298.132L317.473 299.355Z" fill="#D0D9DD"/>
<path opacity="0.5" d="M397.543 22.335L397.543 24.6719L395.527 25.8403L393.498 24.6719L393.498 22.335L395.527 21.1664L397.543 22.335Z" fill="#D0D9DD"/>
<path opacity="0.5" d="M439.258 136.925L439.258 141.156L435.602 143.264L431.947 141.156L431.947 136.925L435.602 134.816L439.258 136.925Z" fill="#D0D9DD"/>
<path opacity="0.5" d="M399.613 113.502L399.613 118.216L395.528 120.58L391.429 118.216L391.429 113.502L395.528 111.138L399.613 113.502Z" fill="#D0D9DD"/>
<path opacity="0.5" d="M118.912 506.858L118.912 511.411L114.961 513.694L111.01 511.411L111.01 506.858L114.961 504.588L118.912 506.858Z" fill="#D0D9DD"/>
<path d="M198 276.012L198 279.33L195.124 280.995L192.248 279.33L192.248 276.012L195.124 274.347L198 276.012Z" fill="white"/>
<path d="M117.838 229.757L117.838 233.075L114.962 234.74L112.086 233.075L112.086 229.757L114.962 228.092L117.838 229.757Z" fill="white"/>
<path d="M199.492 367.556L199.492 372.605L195.125 375.13L190.743 372.605L190.743 367.556L195.125 365.031L199.492 367.556Z" fill="white"/>
<path d="M197.436 461.167L197.436 463.839L195.124 465.169L192.813 463.839L192.813 461.167L195.124 459.824L197.436 461.167Z" fill="white"/>
<path d="M276.969 230.483L276.969 232.43L275.275 233.411L273.596 232.43L273.596 230.483L275.275 229.516L276.969 230.483Z" fill="white"/>
<path d="M38.2109 229.489L38.2109 233.424L34.7975 235.385L31.3974 233.424L31.3974 229.489L34.7975 227.528L38.2109 229.489Z" fill="white"/>
<path d="M36.0215 276.966L36.0215 278.363L34.7986 279.061L33.589 278.363L33.589 276.966L34.7986 276.267L36.0215 276.966Z" fill="white"/>
<path d="M37.8887 322.093L37.8887 325.652L34.7977 327.438L31.7202 325.652L31.7202 322.093L34.7977 320.32L37.8887 322.093Z" fill="white"/>
<path d="M36.4238 600.187L36.4238 602.054L34.7977 602.994L33.185 602.054L33.185 600.187L34.7977 599.26L36.4238 600.187Z" fill="white"/>
<path d="M38.1973 645.367L38.1973 649.289L34.7972 651.25L31.4105 649.289L31.4105 645.367L34.7972 643.42L38.1973 645.367Z" fill="white"/>
<path d="M157.967 21.8112L157.967 25.1823L155.037 26.8745L152.121 25.1823L152.121 21.8112L155.037 20.1324L157.967 21.8112Z" fill="white"/>
<path d="M117.877 44.9386L117.877 48.3097L114.961 50.002L112.044 48.3097L112.044 44.9386L114.961 43.2598L117.877 44.9386Z" fill="white"/>
<path d="M77.2383 68.3214L77.2383 71.0344L74.8865 72.4043L72.5212 71.0344L72.5212 68.3214L74.8865 66.9649L77.2383 68.3214Z" fill="white"/>
<path d="M76.9688 391.717L76.9688 394.121L74.8857 395.33L72.8027 394.121L72.8027 391.717L74.8857 390.521L76.9688 391.717Z" fill="white"/>
<path d="M76.2695 438.308L76.2695 439.906L74.8853 440.698L73.5011 439.906L73.5011 438.308L74.8853 437.502L76.2695 438.308Z" fill="white"/>
<path d="M76.4316 484.388L76.4316 486.174L74.8862 487.074L73.3272 486.174L73.3272 484.388L74.8862 483.488L76.4316 484.388Z" fill="white"/>
<path d="M77.5605 529.904L77.5605 533.007L74.8862 534.551L72.1984 533.007L72.1984 529.904L74.8862 528.36L77.5605 529.904Z" fill="white"/>
<path d="M77.2246 576.294L77.2246 578.98L74.8862 580.336L72.5479 578.98L72.5479 576.294L74.8862 574.937L77.2246 576.294Z" fill="white"/>
<path d="M276.969 91.8653L276.969 93.8128L275.275 94.7798L273.596 93.8128L273.596 91.8653L275.275 90.8849L276.969 91.8653Z" fill="white"/>
<path d="M277.492 137.771L277.492 140.31L275.275 141.585L273.071 140.31L273.071 137.771L275.275 136.495L277.492 137.771Z" fill="white"/>
<path d="M278.205 368.401L278.205 371.772L275.275 373.451L272.359 371.772L272.359 368.401L275.275 366.709L278.205 368.401Z" fill="white"/>
<path d="M239.258 113.515L239.258 118.203L235.199 120.54L231.141 118.203L231.141 113.515L235.199 111.178L239.258 113.515Z" fill="white"/>
<path d="M238.225 160.294L238.225 163.773L235.201 165.519L232.19 163.773L232.19 160.294L235.201 158.548L238.225 160.294Z" fill="white"/>
<path d="M238.479 206.321L238.479 210.108L235.199 211.989L231.934 210.108L231.934 206.321L235.199 204.441L238.479 206.321Z" fill="white"/>
<path d="M237.176 391.784L237.176 394.067L235.2 395.209L233.225 394.067L233.225 391.784L235.2 390.643L237.176 391.784Z" fill="white"/>
<path d="M237.445 483.985L237.445 486.577L235.201 487.88L232.957 486.577L232.957 483.985L235.201 482.682L237.445 483.985Z" fill="white"/>
<path d="M358.314 44.9655L358.314 48.2829L355.439 49.9482L352.563 48.2829L352.563 44.9655L355.439 43.3001L358.314 44.9655Z" fill="white"/>
<path d="M358.193 276.079L358.193 279.249L355.438 280.847L352.683 279.249L352.683 276.079L355.438 274.494L358.193 276.079Z" fill="white"/>
<path d="M318.711 160.106L318.711 163.974L315.365 165.895L312.018 163.974L312.018 160.106L315.365 158.172L318.711 160.106Z" fill="white"/>
<path d="M316.922 207.315L316.922 209.114L315.363 210.014L313.791 209.114L313.791 207.315L315.363 206.415L316.922 207.315Z" fill="white"/>
<path d="M437.752 91.5966L437.752 94.0813L435.602 95.3169L433.451 94.0813L433.451 91.5966L435.602 90.3476L437.752 91.5966Z" fill="white"/>
</g>
<defs>
<clipPath id="clip0_825_6786">
<rect width="602" height="718" fill="white" transform="translate(476 718) rotate(-180)"/>
</clipPath>
</defs>
</svg>
