<svg width="105" height="105" viewBox="0 0 105 105" fill="none" xmlns="http://www.w3.org/2000/svg">
<path d="M28.7584 52.4661L28.7968 66.5509L40.7647 73.5933V81.8393L21.7928 70.7123V48.3473L28.7584 52.4661ZM28.7584 38.3813V46.5889L21.7886 42.4659V34.2583L28.7584 30.1353L35.7624 34.2583L28.7584 38.3813ZM45.7626 34.2583L52.7325 30.1353L59.7365 34.2583L52.7325 38.3813L45.7626 34.2583Z" fill="white"/>
<path d="M33.7983 63.6315V55.3855L40.7682 59.5085V67.7161L33.7983 63.6315ZM45.7662 76.5469L52.736 80.6699L59.74 76.5469V84.7545L52.736 88.8775L45.7662 84.7545V76.5469ZM69.736 34.2583L76.7058 30.1353L83.7098 34.2583V42.4659L76.7058 46.5889V38.3813L69.736 34.2583ZM76.7058 66.5509L76.7442 52.4661L83.7141 48.3431V70.7081L64.7422 81.8351V73.589L76.7058 66.5509Z" fill="white"/>
<path d="M71.7086 63.6313L64.7388 67.7159V59.5083L71.7086 55.3853V63.6313Z" fill="white"/>
<path d="M71.7078 41.3006L71.7462 49.5467L59.7443 56.5891V70.708L52.7744 74.7926L45.8046 70.708V56.5891L33.8026 49.5467V41.3006L40.8023 37.1776L52.7317 44.2542L64.7337 37.1776L71.7377 41.3006H71.7078ZM33.7983 27.2201L52.736 16.0547L71.7078 27.2201L64.738 31.3431L52.736 24.2666L40.7682 31.3431L33.7983 27.2201Z" fill="white"/>
</svg>
