<svg width="105" height="105" viewBox="0 0 105 105" fill="none" xmlns="http://www.w3.org/2000/svg">
<g clip-path="url(#clip0_1058_7007)">
<path d="M52.0672 64.1976C51.8629 64.2671 51.7464 64.0893 51.6075 64.0076C44.7968 59.9879 37.9937 55.9656 31.198 51.9405C31.1322 51.9072 31.0639 51.8792 30.9937 51.8567V51.7668L31.1142 51.6973C31.2854 51.6524 31.4539 51.5978 31.6189 51.5339L47.6682 44.2315C49.0984 43.5797 50.5287 42.9381 51.9589 42.2925H52.0611C52.0611 42.4968 52.0611 42.6786 52.0611 42.8727C52.0665 49.9817 52.0686 57.09 52.0672 64.1976Z" fill="white"/>
<path d="M52.0777 42.2971H51.9756C51.9756 42.0928 51.996 41.8885 51.996 41.674C51.996 33.6891 51.996 25.7036 51.996 17.7175C51.9725 17.5123 51.9864 17.3047 52.0369 17.1045H52.0798C52.9195 18.3447 53.651 19.6524 54.4233 20.9334C60.542 31.0827 66.6573 41.2306 72.7692 51.3771C72.8285 51.4772 72.8755 51.5814 72.9286 51.6918C72.7555 51.6548 72.5855 51.6049 72.4198 51.5426C71.2981 51.0359 70.1723 50.521 69.0608 50.0041C67.32 49.2072 65.5785 48.4118 63.8364 47.6176L55.4429 43.8152C54.3253 43.3004 53.2015 42.7998 52.0777 42.2971Z" fill="white"/>
<path d="M52.0432 17.0939C51.9927 17.2941 51.9789 17.5018 52.0024 17.7069C52.0024 25.6917 52.0024 33.6772 52.0024 41.6634C52.0024 41.8677 51.9901 42.0721 51.9819 42.2866C50.5517 42.9322 49.1215 43.5738 47.6912 44.2256L31.6419 51.528C31.4769 51.5919 31.3084 51.6465 31.1372 51.6914C31.601 50.727 32.2038 49.8526 32.7534 48.929C39.1214 38.3439 45.4941 27.7608 51.8716 17.1798C51.9137 17.1211 51.9595 17.0652 52.0085 17.0122L52.0432 17.0939Z" fill="white"/>
<path d="M52.0781 42.2974C53.2018 42.8 54.3256 43.3006 55.4473 43.8073L63.8408 47.6097C65.5843 48.4024 67.3258 49.1979 69.0653 49.9961C70.1849 50.509 71.3128 51.028 72.4243 51.5347C72.5899 51.597 72.76 51.6468 72.933 51.6838C73.1373 51.9392 72.835 51.9494 72.743 52.0046C71.0002 53.0466 69.2491 54.0744 67.5022 55.1082C62.4882 58.0749 57.4755 61.041 52.4643 64.0064C52.3376 64.0799 52.2007 64.1351 52.0679 64.1984C52.0679 57.0922 52.0679 49.9852 52.0679 42.8776C52.0699 42.6835 52.076 42.4915 52.0781 42.2974Z" fill="white"/>
<path d="M51.9955 68.2343L65.1231 60.4967C67.6294 59.0174 70.1344 57.5368 72.638 56.0548L72.8648 55.9302C72.8872 56.1345 72.7463 56.2428 72.6604 56.3613C66.9395 64.4265 61.2185 72.4889 55.4976 80.5487C54.4147 82.077 53.3338 83.6135 52.2407 85.1295C52.1835 85.2092 52.0956 85.5831 51.9199 85.1867C52.0589 85.0682 51.9976 84.9089 51.9976 84.7781C51.9989 79.2615 51.9982 73.7469 51.9955 68.2343Z" fill="white"/>
<path d="M51.9944 68.2349C51.9944 73.7475 51.9944 79.2587 51.9944 84.7685C51.9944 84.9095 52.0557 85.0689 51.9167 85.1772C51.6246 85.0015 51.4979 84.6868 51.3038 84.4273C44.6702 75.0831 38.04 65.7375 31.4132 56.3905C31.3295 56.272 31.2518 56.1453 31.166 56.0146C31.3376 55.9145 31.4296 56.0514 31.5297 56.1106C38.2382 60.0717 44.9454 64.0362 51.6511 68.0041C51.7758 68.0817 51.882 68.1614 51.9944 68.2349Z" fill="white"/>
<path d="M52.0451 17.094L51.9961 17.0184C52.086 16.9612 52.0737 17.0449 52.088 17.0878L52.0451 17.094Z" fill="white"/>
</g>
<defs>
<clipPath id="clip0_1058_7007">
<rect width="42" height="68.3675" fill="white" transform="translate(31 17)"/>
</clipPath>
</defs>
</svg>
