<svg width="105" height="105" viewBox="0 0 105 105" fill="none" xmlns="http://www.w3.org/2000/svg">
<g clip-path="url(#clip0_1069_6459)">
<path d="M36.9286 20.6457C54.5829 20.6402 72.2383 20.6402 89.8948 20.6457C89.9002 26.3522 89.9002 32.0578 89.8948 37.7624C72.24 37.7678 54.5846 37.7678 36.9286 37.7624C36.9229 32.0558 36.9229 26.3503 36.9286 20.6457Z" fill="white"/>
<path d="M16.0744 44.2014C21.7701 44.1718 27.4668 44.1718 33.1645 44.2014C33.1941 49.8971 33.1941 55.5938 33.1645 61.2915C27.4671 61.3208 21.7704 61.3213 16.0744 61.293C16.0449 55.5963 16.0449 49.8991 16.0744 44.2014Z" fill="white"/>
<path d="M36.9423 44.2024C49.6849 44.1754 62.4266 44.1754 75.1674 44.2024C75.1945 49.8982 75.1945 55.5949 75.1674 61.2926C62.4251 61.3192 49.6834 61.3192 36.9423 61.2926C36.9157 55.5966 36.9157 49.8999 36.9423 44.2024Z" fill="white"/>
<path d="M36.9557 67.7636C42.6418 67.7018 48.3269 67.7018 54.0111 67.7636C54.0702 73.4461 54.071 79.1312 54.0137 84.8191C48.3276 84.8752 42.6425 84.8742 36.9586 84.8161C36.8996 79.1342 36.8986 73.45 36.9557 67.7636Z" fill="white"/>
</g>
<defs>
<clipPath id="clip0_1069_6459">
<rect width="73.8469" height="64.2189" fill="white" transform="translate(16.0547 20.6416)"/>
</clipPath>
</defs>
</svg>
