<svg width="47" height="29" viewBox="0 0 47 29" fill="none" xmlns="http://www.w3.org/2000/svg">
<path d="M30.1683 1.85996L28.8103 2.5495H18.1897L16.8317 1.85996C15.73 1.29474 14.5143 1.00026 13.2814 1H11.8324C9.09208 1 6.46404 2.11173 4.52633 4.09063C2.58863 6.06954 1.5 8.75351 1.5 11.5521V22.3986C1.5001 23.5981 1.88632 24.7643 2.59913 25.7177C3.31194 26.671 4.31176 27.3587 5.44479 27.6747L5.93032 27.8064C7.05675 28.1211 8.25307 28.0507 9.33661 27.6058C10.4201 27.1609 11.3314 26.3661 11.931 25.3427L15.7924 18.7728C16.0618 18.3179 16.4413 17.9414 16.8943 17.6795C17.3473 17.4176 17.8587 17.2792 18.3793 17.2775H28.6207C29.1413 17.2792 29.6527 17.4176 30.1057 17.6795C30.5587 17.9414 30.9382 18.3179 31.2076 18.7728L35.069 25.3427C35.6686 26.3661 36.5798 27.1609 37.6634 27.6058C38.7469 28.0507 39.9433 28.1211 41.0697 27.8064L41.5552 27.6747C42.6882 27.3587 43.6881 26.671 44.4009 25.7177C45.1137 24.7643 45.4999 23.5981 45.5 22.3986V11.5521C45.5 10.1664 45.2328 8.79422 44.7135 7.51398C44.1943 6.23374 43.4331 5.07049 42.4737 4.09063C41.5142 3.11078 40.3752 2.33353 39.1216 1.80324C37.8681 1.27295 36.5245 1 35.1676 1H33.7186C32.4857 1.00026 31.27 1.29474 30.1683 1.85996V1.85996Z" stroke="white" stroke-width="2" stroke-linecap="round" stroke-linejoin="round"/>
<path d="M37.5 8C37.5 8.35684 37.3903 8.6414 37.2607 8.81421C37.1313 8.98672 37.0289 9 37 9C36.9711 9 36.8687 8.98672 36.7393 8.81421C36.6097 8.6414 36.5 8.35684 36.5 8C36.5 7.64316 36.6097 7.3586 36.7393 7.18579C36.8687 7.01328 36.9711 7 37 7C37.0289 7 37.1313 7.01328 37.2607 7.18579C37.3903 7.3586 37.5 7.64316 37.5 8Z" stroke="white" stroke-width="2"/>
<path d="M37.5 7.66667C37.5 7.87546 37.4244 8.05729 37.3173 8.17621L38.0606 8.84518L37.3173 8.17621C37.2135 8.29165 37.0966 8.33333 37 8.33333C36.9034 8.33333 36.7865 8.29165 36.6827 8.17621C36.5756 8.05729 36.5 7.87546 36.5 7.66667C36.5 7.45787 36.5756 7.27604 36.6827 7.15712C36.7865 7.04168 36.9034 7 37 7C37.0966 7 37.2135 7.04168 37.3173 7.15712C37.4244 7.27604 37.5 7.45787 37.5 7.66667ZM36.6827 13.8238C36.7865 13.7084 36.9034 13.6667 37 13.6667C37.0966 13.6667 37.2135 13.7084 37.3173 13.8238C37.4244 13.9427 37.5 14.1245 37.5 14.3333C37.5 14.5421 37.4244 14.724 37.3173 14.8429C37.2135 14.9583 37.0966 15 37 15C36.9034 15 36.7865 14.9583 36.6827 14.8429C36.5756 14.724 36.5 14.5421 36.5 14.3333C36.5 14.1245 36.5756 13.9427 36.6827 13.8238ZM40.3173 10.4905C40.4244 10.6094 40.5 10.7912 40.5 11C40.5 11.2088 40.4244 11.3906 40.3173 11.5095C40.2135 11.625 40.0966 11.6667 40 11.6667C39.9034 11.6667 39.7865 11.625 39.6827 11.5095C39.5756 11.3906 39.5 11.2088 39.5 11C39.5 10.7912 39.5756 10.6094 39.6827 10.4905C39.7865 10.375 39.9034 10.3333 40 10.3333C40.0966 10.3333 40.2135 10.375 40.3173 10.4905ZM34.3173 10.4905L35.0606 9.82149L34.3173 10.4905C34.4244 10.6094 34.5 10.7912 34.5 11C34.5 11.2088 34.4244 11.3906 34.3173 11.5095C34.2135 11.625 34.0966 11.6667 34 11.6667C33.9034 11.6667 33.7865 11.625 33.6827 11.5095C33.5756 11.3906 33.5 11.2088 33.5 11C33.5 10.7912 33.5756 10.6094 33.6827 10.4905L32.9671 9.84647L33.6827 10.4905C33.7865 10.375 33.9034 10.3333 34 10.3333C34.0966 10.3333 34.2135 10.375 34.3173 10.4905Z" stroke="white" stroke-width="2"/>
<path d="M13.5 10H7.5M10.5 7V13V7Z" stroke="white" stroke-width="2" stroke-linecap="round" stroke-linejoin="round"/>
</svg>
