<svg width="125" height="122" viewBox="0 0 125 122" fill="none" xmlns="http://www.w3.org/2000/svg">
<g clip-path="url(#clip0_909_7413)">
<path d="M92.5998 121.05H32.2998C26.3998 121.05 21.1998 117.25 19.2998 111.65L0.699809 54.2498C-1.10019 48.6498 0.899808 42.4498 5.69981 39.0498L54.3998 3.5498C59.1998 0.0498047 65.5998 0.0498047 70.3998 3.5498L119.2 38.9498C124 42.4498 126 48.5498 124.2 54.1498L105.6 111.55C103.7 117.25 98.4998 121.05 92.5998 121.05ZM62.3998 3.9498C60.1998 3.9498 57.9998 4.6498 56.0998 5.9498L7.39981 41.4498C3.69981 44.1498 2.09981 48.9498 3.49981 53.3498L22.0998 110.75C23.4998 115.15 27.5998 118.05 32.1998 118.05H92.4998C97.0998 118.05 101.2 115.05 102.6 110.75L121.2 53.3498C122.6 48.9498 121.1 44.1498 117.3 41.4498L68.6998 5.9498C66.7998 4.6498 64.5998 3.9498 62.3998 3.9498Z" fill="#9024B6"/>
<path d="M44.3125 63.9397V78.6376C44.3125 79.0934 44.4936 79.5306 44.8159 79.8529C45.1382 80.1752 45.5754 80.3563 46.0312 80.3563H76.9688C77.4246 80.3563 77.8618 80.1752 78.1841 79.8529C78.5064 79.5306 78.6875 79.0934 78.6875 78.6376V63.94" stroke="#B920ED" stroke-width="2" stroke-linecap="round" stroke-linejoin="round"/>
<path d="M45.609 42.5437H77.391C77.7645 42.5437 78.1279 42.6654 78.4261 42.8903C78.7243 43.1152 78.9411 43.4311 79.0437 43.7903L82.125 54.575H40.875L43.9563 43.7903C44.0589 43.4311 44.2757 43.1152 44.5739 42.8903C44.8721 42.6654 45.2355 42.5437 45.609 42.5437Z" fill="#B920ED" stroke="#B920ED" stroke-width="2" stroke-linecap="round" stroke-linejoin="round"/>
<path d="M54.625 54.575V58.0125C54.625 59.8358 53.9007 61.5845 52.6114 62.8738C51.322 64.1631 49.5734 64.8875 47.75 64.8875C45.9266 64.8875 44.178 64.1631 42.8886 62.8738C41.5993 61.5845 40.875 59.8358 40.875 58.0125V54.575" stroke="#B920ED" stroke-width="2" stroke-linecap="round" stroke-linejoin="round"/>
<path d="M68.375 54.575V58.0125C68.375 59.8358 67.6507 61.5845 66.3614 62.8738C65.072 64.1631 63.3234 64.8875 61.5 64.8875C59.6766 64.8875 57.928 64.1631 56.6386 62.8738C55.3493 61.5845 54.625 59.8358 54.625 58.0125V54.575" stroke="#B920ED" stroke-width="2" stroke-linecap="round" stroke-linejoin="round"/>
<path d="M82.125 54.575V58.0125C82.125 59.8358 81.4007 61.5845 80.1114 62.8738C78.822 64.1631 77.0734 64.8875 75.25 64.8875C73.4266 64.8875 71.678 64.1631 70.3886 62.8738C69.0993 61.5845 68.375 59.8358 68.375 58.0125V54.575" stroke="#B920ED" stroke-width="2" stroke-linecap="round" stroke-linejoin="round"/>
</g>
<defs>
<clipPath id="clip0_909_7413">
<rect width="124.9" height="120.1" fill="white" transform="translate(0 0.949951)"/>
</clipPath>
</defs>
</svg>
