<svg width="125" height="122" viewBox="0 0 125 122" fill="none" xmlns="http://www.w3.org/2000/svg">
<g clip-path="url(#clip0_909_7489)">
<path d="M119.2 39.05L70.4002 3.55005C65.6002 0.0500488 59.2002 0.0500488 54.4002 3.55005L5.6002 39.05C0.800199 42.55 -1.1998 48.6501 0.600199 54.25L19.2002 111.65C21.0002 117.25 26.2002 121.05 32.2002 121.05H92.5002C98.4002 121.05 103.6 117.25 105.5 111.65L124.1 54.25C126 48.6501 124 42.4501 119.2 39.05ZM121.3 53.3501L102.7 110.75C101.3 115.15 97.2002 118.05 92.6002 118.05H32.3002C27.7002 118.05 23.6002 115.05 22.2002 110.75L3.5002 53.3501C2.1002 48.9501 3.7002 44.1501 7.4002 41.4501L56.2002 5.95005C58.1002 4.55005 60.3002 3.95005 62.5002 3.95005C64.7002 3.95005 66.9002 4.65005 68.8002 5.95005L117.6 41.3501C121.2 44.1501 122.8 48.9501 121.3 53.3501Z" fill="#9024B6"/>
<path fill-rule="evenodd" clip-rule="evenodd" d="M61.5352 47.0849C64.3339 47.0849 66.6027 44.8161 66.6027 42.0174C66.6027 39.2187 64.3339 36.95 61.5352 36.95C58.7365 36.95 56.4677 39.2187 56.4677 42.0174C56.4677 44.8161 58.7365 47.0849 61.5352 47.0849ZM84.5547 55.1756C87.0098 55.1756 89 53.1854 89 50.7302C89 48.2751 87.0098 46.2849 84.5547 46.2849C82.0995 46.2849 80.1093 48.2751 80.1093 50.7302C80.1093 53.1854 82.0995 55.1756 84.5547 55.1756ZM38.9367 56.834C40.0787 56.7924 41.1315 56.401 41.9912 55.7638C43.4081 59.9131 47.5712 62.656 52.1008 62.1181C57.311 61.4994 61.0331 56.774 60.4144 51.5638L60.0758 48.7121C60.5519 48.7007 61.0377 48.6949 61.5332 48.6949C62.029 48.6949 62.515 48.7007 62.9913 48.7121L62.6527 51.5638C62.0339 56.774 65.7561 61.4994 70.9663 62.1181C75.4957 62.656 79.6586 59.9133 81.0757 55.7644C81.9353 56.4013 82.988 56.7925 84.1298 56.834L81.031 69.4147C80.2559 72.5612 78.301 75.2856 75.1658 76.1052C72.2768 76.8605 67.8807 77.565 61.5335 77.565C53.5057 77.565 48.8676 76.6667 46.271 75.8114C44.1401 75.1095 42.9566 73.1519 42.42 70.9735L38.9367 56.834ZM61.5341 72.5933C63.2447 72.5933 64.6314 70.554 64.6314 68.0384C64.6314 65.5228 63.2447 63.4835 61.5341 63.4835C59.8235 63.4835 58.4368 65.5228 58.4368 68.0384C58.4368 70.554 59.8235 72.5933 61.5341 72.5933ZM79.2671 76.5582C76.6281 78.1625 69.6848 79.3101 61.5347 79.3101C53.1304 79.3101 46.0095 78.0898 43.5681 76.4069C42.9822 77.2829 42.6658 78.524 42.6658 80.255C42.6658 81.855 51.1135 85.3822 61.5345 85.3822C71.9555 85.3822 80.4034 81.7589 80.4034 80.2551C80.4034 78.5597 80.0023 77.3747 79.2671 76.5582ZM42.8908 50.7665C42.8908 53.2217 40.9005 55.2119 38.4454 55.2119C35.9903 55.2119 34 53.2217 34 50.7665C34 48.3114 35.9903 46.3212 38.4454 46.3212C40.9005 46.3212 42.8908 48.3114 42.8908 50.7665Z" fill="#B920ED"/>
</g>
<defs>
<clipPath id="clip0_909_7489">
<rect width="124.9" height="120.1" fill="white" transform="translate(0 0.949951)"/>
</clipPath>
</defs>
</svg>
