<svg width="132" height="129" viewBox="0 0 132 129" fill="none" xmlns="http://www.w3.org/2000/svg">
<path d="M47.9307 0.0895386L53.8679 5.05882H57.6086L51.6703 0.0895386H47.9307ZM54.7033 0.0895386L60.6417 5.05882H64.3824L58.444 0.0895386H54.7033ZM61.4771 0.0895386L67.4155 5.05882H71.155L65.2166 0.0895386H61.4771ZM68.2496 0.0895386L74.1879 5.05882H77.9287L71.9904 0.0895386H68.2496ZM75.0233 0.0895386L80.9617 5.05882H119.097L113.159 0.0895386H75.0233Z" fill="url(#paint0_linear_23_3059)"/>
<path opacity="0.3" d="M120.391 7.16646H52.885L44.0004 0H14.042L0 13.9914V77.6738L11.0004 88.5294V116.483L23.5612 129H132V18.7341L120.391 7.16646Z" fill="black"/>
<path d="M42.6519 3.79412L51.5365 10.9606H118.813L128.192 20.3063V125.206H25.1379L14.8081 114.912V86.9473L3.8077 76.0917V15.5636L15.6187 3.79412H42.6519ZM43.1017 2.52942H15.0932L14.7213 2.89935L2.91023 14.6695L2.53847 15.0394V76.619L2.91517 76.9902L13.5389 87.4747V115.436L13.9106 115.806L24.2405 126.1L24.6124 126.471H129.462V19.782L129.09 19.4121L119.71 10.0658L119.339 9.69588H51.9863L43.4512 2.81107L43.1017 2.52942Z" fill="url(#paint1_linear_23_3059)"/>
<path d="M125.791 122.747H113.438V121.483H124.522V110.346H125.791V122.747Z" fill="url(#paint2_linear_23_3059)"/>
<path d="M2.81732 89.3582L7.80373 93.7024V89.9751L2.81732 85.6313V89.3582ZM2.81732 96.1072L7.80373 100.452V96.7241L2.81732 92.3803V96.1072ZM2.81732 102.856L7.80373 107.201V103.474L2.81732 99.1293V102.856ZM2.81732 109.605L7.80373 113.95V110.223L2.81732 105.878V109.605Z" fill="url(#paint3_linear_23_3059)"/>
<path d="M3.32919 75.7872V15.4785L7.3538 11.1187V79.8345L3.32919 75.7872Z" fill="url(#paint4_linear_23_3059)"/>
<path fill-rule="evenodd" clip-rule="evenodd" d="M54.4431 92.6666H77.5542C86.5949 92.6666 92.6667 86.325 92.6667 76.8887V55.1112C92.6667 45.6749 86.5949 39.3333 77.5568 39.3333H54.4431C45.405 39.3333 39.3333 45.6749 39.3333 55.1112V76.8887C39.3333 86.325 45.405 92.6666 54.4431 92.6666ZM56.6636 63.3333C52.9872 63.3333 50 60.342 50 56.6666C50 52.9913 52.9872 50 56.6636 50C60.3373 50 63.3272 52.9913 63.3272 56.6666C63.3272 60.342 60.3373 63.3333 56.6636 63.3333ZM86.8555 73.8239C87.7485 76.1135 87.2845 78.8655 86.3299 81.1331C85.1983 83.83 83.0316 85.872 80.3018 86.7637C79.0898 87.1599 77.8187 87.3333 76.5504 87.3333H54.0764C51.84 87.3333 49.861 86.7967 48.2387 85.7977C47.2224 85.1703 47.0427 83.7227 47.7962 82.7843C49.0565 81.2157 50.3008 79.6415 51.5557 78.0536C53.9477 75.0155 55.5593 74.1348 57.3505 74.9081C58.0772 75.2274 58.8066 75.7062 59.5574 76.2126C61.5579 77.572 64.3386 79.4406 68.0016 77.4124C70.5083 76.0085 71.9621 73.6003 73.2282 71.5032L73.2494 71.4682C73.3391 71.321 73.428 71.1739 73.5167 71.0272L73.5167 71.0272C73.9422 70.3232 74.362 69.6286 74.8368 68.9886C75.4321 68.1878 77.6391 65.6835 80.4976 67.4668C82.3183 68.5896 83.8495 70.1087 85.4879 71.7351C86.1127 72.357 86.5578 73.0643 86.8555 73.8239Z" fill="white"/>
<defs>
<linearGradient id="paint0_linear_23_3059" x1="47.9307" y1="2.57418" x2="119.097" y2="2.57418" gradientUnits="userSpaceOnUse">
<stop stop-color="#2824E6"/>
<stop offset="1" stop-color="#E40FAC"/>
</linearGradient>
<linearGradient id="paint1_linear_23_3059" x1="2.53847" y1="64.5" x2="129.462" y2="64.5" gradientUnits="userSpaceOnUse">
<stop stop-color="#2824E6"/>
<stop offset="1" stop-color="#E40FAC"/>
</linearGradient>
<linearGradient id="paint2_linear_23_3059" x1="113.438" y1="116.546" x2="125.791" y2="116.546" gradientUnits="userSpaceOnUse">
<stop stop-color="#2824E6"/>
<stop offset="1" stop-color="#E40FAC"/>
</linearGradient>
<linearGradient id="paint3_linear_23_3059" x1="2.81732" y1="99.7904" x2="7.80373" y2="99.7904" gradientUnits="userSpaceOnUse">
<stop stop-color="#2824E6"/>
<stop offset="1" stop-color="#E40FAC"/>
</linearGradient>
<linearGradient id="paint4_linear_23_3059" x1="3.32919" y1="45.4766" x2="7.3538" y2="45.4766" gradientUnits="userSpaceOnUse">
<stop stop-color="#2824E6"/>
<stop offset="1" stop-color="#E40FAC"/>
</linearGradient>
</defs>
</svg>
