<svg width="132" height="129" viewBox="0 0 132 129" fill="none" xmlns="http://www.w3.org/2000/svg">
<path d="M47.9307 0.0895386L53.8679 5.05882H57.6086L51.6703 0.0895386H47.9307ZM54.7033 0.0895386L60.6417 5.05882H64.3824L58.444 0.0895386H54.7033ZM61.4771 0.0895386L67.4155 5.05882H71.155L65.2166 0.0895386H61.4771ZM68.2496 0.0895386L74.1879 5.05882H77.9287L71.9904 0.0895386H68.2496ZM75.0233 0.0895386L80.9617 5.05882H119.097L113.159 0.0895386H75.0233Z" fill="url(#paint0_linear_23_3114)"/>
<path opacity="0.3" d="M120.391 7.16646H52.885L44.0004 0H14.042L0 13.9914V77.6738L11.0004 88.5294V116.483L23.5612 129H132V18.7341L120.391 7.16646Z" fill="black"/>
<path d="M42.6519 3.79412L51.5365 10.9606H118.813L128.192 20.3063V125.206H25.1379L14.8081 114.912V86.9473L3.8077 76.0917V15.5636L15.6187 3.79412H42.6519ZM43.1017 2.52942H15.0932L14.7213 2.89935L2.91023 14.6695L2.53847 15.0394V76.619L2.91517 76.9902L13.5389 87.4747V115.436L13.9106 115.806L24.2405 126.1L24.6124 126.471H129.462V19.782L129.09 19.4121L119.71 10.0658L119.339 9.69588H51.9863L43.4512 2.81107L43.1017 2.52942Z" fill="url(#paint1_linear_23_3114)"/>
<path d="M125.791 122.747H113.438V121.483H124.522V110.346H125.791V122.747Z" fill="url(#paint2_linear_23_3114)"/>
<path d="M2.81732 89.3582L7.80373 93.7024V89.9751L2.81732 85.6313V89.3582ZM2.81732 96.1072L7.80373 100.452V96.7241L2.81732 92.3803V96.1072ZM2.81732 102.856L7.80373 107.201V103.474L2.81732 99.1293V102.856ZM2.81732 109.605L7.80373 113.95V110.223L2.81732 105.878V109.605Z" fill="url(#paint3_linear_23_3114)"/>
<path d="M3.32919 75.7872V15.4785L7.3538 11.1187V79.8345L3.32919 75.7872Z" fill="url(#paint4_linear_23_3114)"/>
<path fill-rule="evenodd" clip-rule="evenodd" d="M66.5396 50.3906C69.685 50.3906 72.2349 47.8407 72.2349 44.6953C72.2349 41.5499 69.685 39 66.5396 39C63.3942 39 60.8443 41.5499 60.8443 44.6953C60.8443 47.8407 63.3942 50.3906 66.5396 50.3906ZM92.4108 59.4835C95.17 59.4835 97.4069 57.2467 97.4069 54.4874C97.4069 51.7282 95.17 49.4913 92.4108 49.4913C89.6515 49.4913 87.4147 51.7282 87.4147 54.4874C87.4147 57.2467 89.6515 59.4835 92.4108 59.4835ZM41.1417 61.3474C42.4252 61.3006 43.6085 60.8607 44.5746 60.1446C46.1671 64.8079 50.8459 67.8906 55.9366 67.286C61.7923 66.5906 65.9756 61.2799 65.2802 55.4243L64.8996 52.2193C65.4347 52.2065 65.9807 52.1999 66.5376 52.1999C67.0948 52.1999 67.641 52.2065 68.1763 52.2193L67.7957 55.4243C67.1004 61.2799 71.2836 66.5906 77.1393 67.286C82.2298 67.8905 86.9084 64.8081 88.5011 60.1452C89.4672 60.8611 90.6503 61.3007 91.9336 61.3474L88.302 76.0909C87.5269 79.2374 85.5798 81.9654 82.4604 82.8429C79.234 83.7505 74.1269 84.6466 66.538 84.6466C57.0853 84.6466 51.8143 83.5384 48.9825 82.5386C46.867 81.7918 45.6945 79.8281 45.1578 77.6497L41.1417 61.3474ZM66.5384 79.059C68.4609 79.059 70.0194 76.7671 70.0194 73.9398C70.0194 71.1126 68.4609 68.8207 66.5384 68.8207C64.6158 68.8207 63.0573 71.1126 63.0573 73.9398C63.0573 76.7671 64.6158 79.059 66.5384 79.059ZM86.4682 83.5151C83.5022 85.3182 75.6988 86.6079 66.539 86.6079C57.0936 86.6079 49.0905 85.2365 46.3466 83.345C45.6882 84.3296 45.3326 85.7245 45.3326 87.6698C45.3326 89.468 54.8268 93.4323 66.5388 93.4323C78.2508 93.4323 87.7453 89.3601 87.7453 87.67C87.7453 85.7645 87.2945 84.4327 86.4682 83.5151ZM45.5854 54.5283C45.5854 57.2875 43.3485 59.5243 40.5893 59.5243C37.83 59.5243 35.5932 57.2875 35.5932 54.5283C35.5932 51.769 37.83 49.5322 40.5893 49.5322C43.3485 49.5322 45.5854 51.769 45.5854 54.5283Z" fill="white"/>
<defs>
<linearGradient id="paint0_linear_23_3114" x1="47.9307" y1="2.57418" x2="119.097" y2="2.57418" gradientUnits="userSpaceOnUse">
<stop stop-color="#2824E6"/>
<stop offset="1" stop-color="#E40FAC"/>
</linearGradient>
<linearGradient id="paint1_linear_23_3114" x1="2.53847" y1="64.5" x2="129.462" y2="64.5" gradientUnits="userSpaceOnUse">
<stop stop-color="#2824E6"/>
<stop offset="1" stop-color="#E40FAC"/>
</linearGradient>
<linearGradient id="paint2_linear_23_3114" x1="113.438" y1="116.546" x2="125.791" y2="116.546" gradientUnits="userSpaceOnUse">
<stop stop-color="#2824E6"/>
<stop offset="1" stop-color="#E40FAC"/>
</linearGradient>
<linearGradient id="paint3_linear_23_3114" x1="2.81732" y1="99.7904" x2="7.80373" y2="99.7904" gradientUnits="userSpaceOnUse">
<stop stop-color="#2824E6"/>
<stop offset="1" stop-color="#E40FAC"/>
</linearGradient>
<linearGradient id="paint4_linear_23_3114" x1="3.32919" y1="45.4766" x2="7.3538" y2="45.4766" gradientUnits="userSpaceOnUse">
<stop stop-color="#2824E6"/>
<stop offset="1" stop-color="#E40FAC"/>
</linearGradient>
</defs>
</svg>
