<svg width="132" height="129" viewBox="0 0 132 129" fill="none" xmlns="http://www.w3.org/2000/svg">
<path d="M47.9307 0.0895386L53.8679 5.05882H57.6086L51.6703 0.0895386H47.9307ZM54.7033 0.0895386L60.6417 5.05882H64.3824L58.444 0.0895386H54.7033ZM61.4771 0.0895386L67.4155 5.05882H71.155L65.2166 0.0895386H61.4771ZM68.2496 0.0895386L74.1879 5.05882H77.9287L71.9904 0.0895386H68.2496ZM75.0233 0.0895386L80.9617 5.05882H119.097L113.159 0.0895386H75.0233Z" fill="url(#paint0_linear_23_2977)"/>
<path opacity="0.3" d="M120.391 7.16646H52.885L44.0004 0H14.042L0 13.9914V77.6738L11.0004 88.5294V116.483L23.5612 129H132V18.7341L120.391 7.16646Z" fill="black"/>
<path d="M42.6519 3.79412L51.5365 10.9606H118.813L128.192 20.3063V125.206H25.1379L14.8081 114.912V86.9473L3.80768 76.0917V15.5636L15.6186 3.79412H42.6519ZM43.1017 2.52942H15.0932L14.7213 2.89935L2.91021 14.6695L2.53845 15.0394V76.619L2.91516 76.9902L13.5389 87.4747V115.436L13.9106 115.806L24.2405 126.1L24.6124 126.471H129.462V19.782L129.09 19.4121L119.71 10.0658L119.339 9.69588H51.9863L43.4512 2.81107L43.1017 2.52942Z" fill="url(#paint1_linear_23_2977)"/>
<path d="M125.791 122.747H113.438V121.483H124.522V110.346H125.791V122.747Z" fill="url(#paint2_linear_23_2977)"/>
<path d="M2.81732 89.3582L7.80373 93.7024V89.9751L2.81732 85.6313V89.3582ZM2.81732 96.1072L7.80373 100.452V96.7241L2.81732 92.3803V96.1072ZM2.81732 102.856L7.80373 107.201V103.474L2.81732 99.1293V102.856ZM2.81732 109.605L7.80373 113.95V110.223L2.81732 105.878V109.605Z" fill="url(#paint3_linear_23_2977)"/>
<path d="M3.32916 75.7872V15.4785L7.35377 11.1187V79.8345L3.32916 75.7872Z" fill="url(#paint4_linear_23_2977)"/>
<path d="M45.375 69.9875V87.625C45.375 88.172 45.5923 88.6966 45.9791 89.0834C46.3659 89.4702 46.8905 89.6875 47.4375 89.6875H84.5625C85.1095 89.6875 85.6341 89.4702 86.0209 89.0834C86.4077 88.6966 86.625 88.172 86.625 87.625V69.988" stroke="white" stroke-width="2" stroke-linecap="round" stroke-linejoin="round"/>
<path d="M46.9307 44.3125H85.0693C85.5175 44.3125 85.9535 44.4585 86.3113 44.7284C86.6691 44.9983 86.9293 45.3774 87.0524 45.8084L90.75 58.75H41.25L44.9476 45.8084C45.0707 45.3774 45.3309 44.9983 45.6887 44.7284C46.0465 44.4585 46.4825 44.3125 46.9307 44.3125Z" fill="white" stroke="white" stroke-width="2" stroke-linecap="round" stroke-linejoin="round"/>
<path d="M57.75 58.75V62.875C57.75 65.063 56.8808 67.1615 55.3336 68.7086C53.7865 70.2558 51.688 71.125 49.5 71.125C47.312 71.125 45.2135 70.2558 43.6664 68.7086C42.1192 67.1615 41.25 65.063 41.25 62.875V58.75" stroke="white" stroke-width="2" stroke-linecap="round" stroke-linejoin="round"/>
<path d="M74.25 58.75V62.875C74.25 65.063 73.3808 67.1615 71.8336 68.7086C70.2865 70.2558 68.188 71.125 66 71.125C63.812 71.125 61.7135 70.2558 60.1664 68.7086C58.6192 67.1615 57.75 65.063 57.75 62.875V58.75" stroke="white" stroke-width="2" stroke-linecap="round" stroke-linejoin="round"/>
<path d="M90.75 58.75V62.875C90.75 65.063 89.8808 67.1615 88.3336 68.7086C86.7865 70.2558 84.688 71.125 82.5 71.125C80.312 71.125 78.2135 70.2558 76.6664 68.7086C75.1192 67.1615 74.25 65.063 74.25 62.875V58.75" stroke="white" stroke-width="2" stroke-linecap="round" stroke-linejoin="round"/>
<defs>
<linearGradient id="paint0_linear_23_2977" x1="47.9307" y1="2.57418" x2="119.097" y2="2.57418" gradientUnits="userSpaceOnUse">
<stop stop-color="#2824E6"/>
<stop offset="1" stop-color="#E40FAC"/>
</linearGradient>
<linearGradient id="paint1_linear_23_2977" x1="2.53845" y1="64.5" x2="129.462" y2="64.5" gradientUnits="userSpaceOnUse">
<stop stop-color="#2824E6"/>
<stop offset="1" stop-color="#E40FAC"/>
</linearGradient>
<linearGradient id="paint2_linear_23_2977" x1="113.438" y1="116.546" x2="125.791" y2="116.546" gradientUnits="userSpaceOnUse">
<stop stop-color="#2824E6"/>
<stop offset="1" stop-color="#E40FAC"/>
</linearGradient>
<linearGradient id="paint3_linear_23_2977" x1="2.81732" y1="99.7904" x2="7.80373" y2="99.7904" gradientUnits="userSpaceOnUse">
<stop stop-color="#2824E6"/>
<stop offset="1" stop-color="#E40FAC"/>
</linearGradient>
<linearGradient id="paint4_linear_23_2977" x1="3.32916" y1="45.4766" x2="7.35377" y2="45.4766" gradientUnits="userSpaceOnUse">
<stop stop-color="#2824E6"/>
<stop offset="1" stop-color="#E40FAC"/>
</linearGradient>
</defs>
</svg>
