<svg width="132" height="129" viewBox="0 0 132 129" fill="none" xmlns="http://www.w3.org/2000/svg">
<path d="M47.9307 0.0895386L53.8679 5.05882H57.6086L51.6703 0.0895386H47.9307ZM54.7033 0.0895386L60.6417 5.05882H64.3824L58.444 0.0895386H54.7033ZM61.4771 0.0895386L67.4155 5.05882H71.155L65.2166 0.0895386H61.4771ZM68.2496 0.0895386L74.1879 5.05882H77.9287L71.9904 0.0895386H68.2496ZM75.0233 0.0895386L80.9617 5.05882H119.097L113.159 0.0895386H75.0233Z" fill="url(#paint0_linear_23_3090)"/>
<path opacity="0.3" d="M120.391 7.16646H52.885L44.0004 0H14.042L0 13.9914V77.6738L11.0004 88.5294V116.483L23.5612 129H132V18.7341L120.391 7.16646Z" fill="black"/>
<path d="M42.6519 3.79412L51.5365 10.9606H118.813L128.192 20.3063V125.206H25.1379L14.8081 114.912V86.9473L3.80768 76.0917V15.5636L15.6186 3.79412H42.6519ZM43.1017 2.52942H15.0932L14.7213 2.89935L2.91021 14.6695L2.53845 15.0394V76.619L2.91516 76.9902L13.5389 87.4747V115.436L13.9106 115.806L24.2405 126.1L24.6124 126.471H129.462V19.782L129.09 19.4121L119.71 10.0658L119.339 9.69588H51.9863L43.4512 2.81107L43.1017 2.52942Z" fill="url(#paint1_linear_23_3090)"/>
<path d="M125.791 122.747H113.438V121.483H124.522V110.346H125.791V122.747Z" fill="url(#paint2_linear_23_3090)"/>
<path d="M2.81732 89.3582L7.80373 93.7024V89.9751L2.81732 85.6313V89.3582ZM2.81732 96.1072L7.80373 100.452V96.7241L2.81732 92.3803V96.1072ZM2.81732 102.856L7.80373 107.201V103.474L2.81732 99.1293V102.856ZM2.81732 109.605L7.80373 113.95V110.223L2.81732 105.878V109.605Z" fill="url(#paint3_linear_23_3090)"/>
<path d="M3.32916 75.7872V15.4785L7.35377 11.1187V79.8345L3.32916 75.7872Z" fill="url(#paint4_linear_23_3090)"/>
<path d="M75.6994 48.274L73.7241 49.2956H58.2759L56.3006 48.274C54.6982 47.4366 52.9299 47.0004 51.1366 47H49.029C45.043 47 41.2204 48.647 38.4019 51.5787C35.5835 54.5104 34 58.4867 34 62.6327V78.7017C34.0001 80.4787 34.5619 82.2064 35.5987 83.6188C36.6355 85.0312 38.0898 86.0499 39.7379 86.518L40.4441 86.7132C42.0825 87.1794 43.8226 87.0751 45.3987 86.416C46.9748 85.7569 48.3002 84.5794 49.1724 83.0632L54.7889 73.3301C55.1808 72.6561 55.7327 72.0983 56.3917 71.7104C57.0507 71.3224 57.7945 71.1174 58.5517 71.1149H73.4483C74.2055 71.1174 74.9493 71.3224 75.6083 71.7104C76.2673 72.0983 76.8192 72.6561 77.2111 73.3301L82.8276 83.0632C83.6998 84.5794 85.0252 85.7569 86.6013 86.416C88.1773 87.0751 89.9175 87.1794 91.5559 86.7132L92.2621 86.518C93.9102 86.0499 95.3645 85.0312 96.4013 83.6188C97.4381 82.2064 97.9999 80.4787 98 78.7017V62.6327C98 60.5798 97.6113 58.547 96.856 56.6503C96.1007 54.7537 94.9936 53.0304 93.5981 51.5787C92.2025 50.1271 90.5458 48.9756 88.7224 48.19C86.899 47.4044 84.9447 47 82.971 47H80.8634C79.0701 47.0004 77.3018 47.4366 75.6994 48.274V48.274Z" stroke="white" stroke-width="3" stroke-linecap="round" stroke-linejoin="round"/>
<path d="M85.4656 57.33C85.4656 57.8256 85.0939 58.1256 84.7587 58.1256C84.4234 58.1256 84.0518 57.8256 84.0518 57.33C84.0518 56.8344 84.4234 56.5345 84.7587 56.5345C85.0939 56.5345 85.4656 56.8344 85.4656 57.33Z" stroke="white" stroke-width="3"/>
<path d="M85.4655 57.33C85.4655 57.5596 85.3773 57.7685 85.2378 57.9136C85.1002 58.0567 84.9266 58.1256 84.7586 58.1256C84.5907 58.1256 84.417 58.0567 84.2795 57.9136L83.1982 58.9532L84.2795 57.9136C84.14 57.7685 84.0517 57.5596 84.0517 57.33C84.0517 57.1004 84.14 56.8915 84.2795 56.7464C84.417 56.6033 84.5907 56.5345 84.7586 56.5345C84.9266 56.5345 85.1002 56.6033 85.2378 56.7464C85.3773 56.8915 85.4655 57.1004 85.4655 57.33ZM84.2795 65.9286C84.417 65.7855 84.5907 65.7167 84.7586 65.7167C84.9266 65.7167 85.1002 65.7855 85.2378 65.9286C85.3773 66.0737 85.4655 66.2827 85.4655 66.5122C85.4655 66.7418 85.3773 66.9508 85.2378 67.0959C85.1002 67.239 84.9266 67.3078 84.7586 67.3078C84.5907 67.3078 84.417 67.239 84.2795 67.0959L83.1982 68.1355L84.2795 67.0959C84.14 66.9508 84.0517 66.7418 84.0517 66.5122C84.0517 66.2827 84.14 66.0737 84.2795 65.9286L83.1982 64.889L84.2795 65.9286ZM89.6516 61.3375C89.7911 61.4826 89.8793 61.6915 89.8793 61.9211C89.8793 62.1507 89.7911 62.3597 89.6516 62.5048C89.514 62.6478 89.3404 62.7167 89.1724 62.7167C89.0045 62.7167 88.8308 62.6478 88.6933 62.5048C88.5538 62.3597 88.4655 62.1507 88.4655 61.9211C88.4655 61.6915 88.5538 61.4826 88.6933 61.3375C88.8308 61.1944 89.0045 61.1256 89.1724 61.1256C89.3404 61.1256 89.514 61.1944 89.6516 61.3375ZM79.8657 61.3375L78.7844 60.2979L79.8657 61.3375C80.0032 61.1944 80.1769 61.1256 80.3448 61.1256C80.5128 61.1256 80.6864 61.1944 80.824 61.3375L81.9053 60.2979L80.824 61.3375C80.9635 61.4826 81.0517 61.6915 81.0517 61.9211C81.0517 62.1507 80.9635 62.3597 80.824 62.5048L81.9053 63.5443L80.824 62.5048C80.6864 62.6478 80.5128 62.7167 80.3448 62.7167C80.1769 62.7167 80.0032 62.6478 79.8657 62.5048L78.7844 63.5443L79.8657 62.5048C79.7262 62.3597 79.6379 62.1507 79.6379 61.9211C79.6379 61.6915 79.7262 61.4826 79.8657 61.3375Z" stroke="white" stroke-width="3"/>
<path d="M51.6552 60.7734H42.8276M47.2414 56.1822V65.3645V56.1822Z" stroke="white" stroke-width="3" stroke-linecap="round" stroke-linejoin="round"/>
<defs>
<linearGradient id="paint0_linear_23_3090" x1="47.9307" y1="2.57418" x2="119.097" y2="2.57418" gradientUnits="userSpaceOnUse">
<stop stop-color="#2824E6"/>
<stop offset="1" stop-color="#E40FAC"/>
</linearGradient>
<linearGradient id="paint1_linear_23_3090" x1="2.53845" y1="64.5" x2="129.462" y2="64.5" gradientUnits="userSpaceOnUse">
<stop stop-color="#2824E6"/>
<stop offset="1" stop-color="#E40FAC"/>
</linearGradient>
<linearGradient id="paint2_linear_23_3090" x1="113.438" y1="116.546" x2="125.791" y2="116.546" gradientUnits="userSpaceOnUse">
<stop stop-color="#2824E6"/>
<stop offset="1" stop-color="#E40FAC"/>
</linearGradient>
<linearGradient id="paint3_linear_23_3090" x1="2.81732" y1="99.7904" x2="7.80373" y2="99.7904" gradientUnits="userSpaceOnUse">
<stop stop-color="#2824E6"/>
<stop offset="1" stop-color="#E40FAC"/>
</linearGradient>
<linearGradient id="paint4_linear_23_3090" x1="3.32916" y1="45.4766" x2="7.35377" y2="45.4766" gradientUnits="userSpaceOnUse">
<stop stop-color="#2824E6"/>
<stop offset="1" stop-color="#E40FAC"/>
</linearGradient>
</defs>
</svg>
