<svg width="105" height="105" viewBox="0 0 105 105" fill="none" xmlns="http://www.w3.org/2000/svg">
<g clip-path="url(#clip0_1069_6413)">
<path d="M70.035 40.3693C68.7598 39.6406 67.1203 39.6406 65.6629 40.3693L55.4615 46.3809L48.5391 50.2064L38.5198 56.218C37.2446 56.9467 35.6051 56.9467 34.1477 56.218L26.3145 51.4816C25.0393 50.7529 24.1285 49.2956 24.1285 47.6561V38.5476C24.1285 37.0903 24.8571 35.6329 26.3145 34.7221L34.1477 30.1679C35.4229 29.4392 37.0624 29.4392 38.5198 30.1679L46.353 34.9043C47.6282 35.6329 48.5391 37.0903 48.5391 38.7298V44.7414L55.4615 40.7337V34.5399C55.4615 33.0826 54.7328 31.6252 53.2754 30.7144L38.702 22.1525C37.4268 21.4238 35.7873 21.4238 34.3299 22.1525L19.3921 30.8966C17.9347 31.6252 17.2061 33.0826 17.2061 34.5399V51.6638C17.2061 53.1211 17.9347 54.5785 19.3921 55.4893L34.1477 64.0512C35.4229 64.7799 37.0624 64.7799 38.5198 64.0512L48.5391 58.2218L55.4615 54.2141L65.4807 48.3847C66.7559 47.6561 68.3954 47.6561 69.8528 48.3847L77.686 52.939C78.9612 53.6676 79.8721 55.125 79.8721 56.7645V65.8729C79.8721 67.3303 79.1434 68.7876 77.686 69.6985L70.035 74.2527C68.7598 74.9814 67.1203 74.9814 65.6629 74.2527L57.8297 69.6985C56.5545 68.9698 55.6436 67.5124 55.6436 65.8729V60.0435L48.7212 64.0512V70.0628C48.7212 71.5202 49.4499 72.9775 50.9072 73.8883L65.6629 82.4503C66.9381 83.1789 68.5776 83.1789 70.035 82.4503L84.7906 73.8883C86.0658 73.1597 86.9766 71.7023 86.9766 70.0628V52.7568C86.9766 51.2994 86.248 49.8421 84.7906 48.9312L70.035 40.3693Z" fill="white"/>
</g>
<defs>
<clipPath id="clip0_1069_6413">
<rect width="69.9528" height="61.0265" fill="white" transform="translate(17.2017 21.7886)"/>
</clipPath>
</defs>
</svg>
