<svg width="105" height="105" viewBox="0 0 105 105" fill="none" xmlns="http://www.w3.org/2000/svg">
<g filter="url(#filter0_d_1069_6436)">
<path d="M55.666 65.5608L64.3372 79.1698L72.3469 74.5279L60.9593 56.5786L55.666 65.5608Z" fill="white"/>
<path d="M79.642 69.069L79.6362 65.3496L67.193 45.9692L62.5767 53.8026L74.5889 73.2297L78.9323 70.7128C79.3581 70.3671 79.6161 69.8592 79.6432 69.3115L79.642 69.069Z" fill="white"/>
<path d="M27.5 72.577L33.6334 76.1112L54.0434 43.3795L50.5796 43.2882C47.6284 43.2465 44.4489 44.0138 42.9896 46.3957L31.3993 64.3596L27.5 70.3507V72.577Z" fill="white"/>
<path d="M65.8225 43.3779L56.693 43.4112L36.0386 77.4947L43.2581 81.6512L45.2211 78.3217L65.8225 43.3779Z" fill="white"/>
<path d="M83.49 43.3317C83.4138 41.4225 82.3799 39.675 80.7608 38.6573L58.0649 25.6053C56.4631 24.7989 54.4623 24.7977 52.8575 25.6049C52.6679 25.7005 30.7862 38.3912 30.7862 38.3912C30.4833 38.5363 30.1917 38.7092 29.9175 38.9056C28.472 39.9419 27.5909 41.5517 27.5 43.3201V70.3505L31.3993 64.3594L31.3652 43.5027C31.3699 43.4265 31.3795 43.3511 31.3927 43.2772C31.4809 42.7864 31.7551 42.3489 32.1674 42.053C32.2707 41.9795 54.5257 29.0969 54.5965 29.0613C55.1198 28.7987 55.7843 28.7956 56.308 29.0532L78.7104 41.9389C79.2403 42.2766 79.5726 42.849 79.6019 43.4748V69.3108C79.5749 69.8585 79.3583 70.3663 78.9324 70.7121L74.5891 73.229L72.348 74.5278L64.3383 79.1698L56.2152 83.8771C55.7777 84.0353 55.266 84.0264 54.8324 83.85L45.2218 78.3223L43.2584 81.6518L51.8955 86.6245C52.181 86.7869 52.4355 86.9308 52.6443 87.0484C52.9677 87.2298 53.1882 87.3509 53.2659 87.3888C53.8797 87.687 54.7628 87.8603 55.5588 87.8603C56.2883 87.8603 57 87.7264 57.6734 87.4626L81.2675 73.7991C82.6217 72.7498 83.4184 71.1674 83.49 69.4535V43.3317Z" fill="white"/>
</g>
<defs>
<filter id="filter0_d_1069_6436" x="-3" y="-2" width="111" height="111" filterUnits="userSpaceOnUse" color-interpolation-filters="sRGB">
<feFlood flood-opacity="0" result="BackgroundImageFix"/>
<feColorMatrix in="SourceAlpha" type="matrix" values="0 0 0 0 0 0 0 0 0 0 0 0 0 0 0 0 0 0 127 0" result="hardAlpha"/>
<feOffset dy="1"/>
<feGaussianBlur stdDeviation="1.5"/>
<feColorMatrix type="matrix" values="0 0 0 0 0.129412 0 0 0 0 0.105882 0 0 0 0 0.305882 0 0 0 0.15 0"/>
<feBlend mode="normal" in2="BackgroundImageFix" result="effect1_dropShadow_1069_6436"/>
<feBlend mode="normal" in="SourceGraphic" in2="effect1_dropShadow_1069_6436" result="shape"/>
</filter>
</defs>
</svg>
