<svg width="105" height="105" viewBox="0 0 105 105" fill="none" xmlns="http://www.w3.org/2000/svg">
<path d="M34.0815 63.8489C34.4148 63.5157 34.873 63.3213 35.359 63.3213H79.4307C80.2361 63.3213 80.6387 64.2933 80.0694 64.8625L71.3634 73.5686C71.0301 73.9018 70.5719 74.0962 70.086 74.0962H26.0142C25.2089 74.0962 24.8062 73.1243 25.3755 72.555L34.0815 63.8489Z" fill="white"/>
<path d="M34.0815 31.3431C34.4287 31.0098 34.8869 30.8154 35.359 30.8154H79.4307C80.2361 30.8154 80.6387 31.7874 80.0694 32.3567L71.3634 41.0627C71.0301 41.396 70.5719 41.5904 70.086 41.5904H26.0142C25.2089 41.5904 24.8062 40.6184 25.3755 40.0491L34.0815 31.3431Z" fill="white"/>
<path d="M71.3634 47.492C71.0301 47.1587 70.5719 46.9644 70.086 46.9644H26.0142C25.2089 46.9644 24.8062 47.9363 25.3755 48.5056L34.0815 57.2117C34.4148 57.5449 34.873 57.7393 35.359 57.7393H79.4307C80.2361 57.7393 80.6387 56.7673 80.0694 56.198L71.3634 47.492Z" fill="white"/>
</svg>
