<svg width="105" height="105" viewBox="0 0 105 105" fill="none" xmlns="http://www.w3.org/2000/svg">
<g clip-path="url(#clip0_1069_6468)">
<path fill-rule="evenodd" clip-rule="evenodd" d="M29.343 40.5374L30.6389 36.5588C30.9023 35.7496 31.545 35.1199 32.3624 34.8716L36.3858 33.6421C36.9427 33.4731 36.9472 32.6924 36.3948 32.5143L32.3895 31.2265C31.5767 30.9647 30.9429 30.3261 30.6916 29.5139L29.4558 25.5158C29.2857 24.9638 28.5 24.9579 28.3209 25.5083L27.0249 29.4869C26.7615 30.2947 26.1188 30.9244 25.3015 31.1741L21.278 32.4022C20.7211 32.5727 20.7151 33.3519 21.269 33.5299L25.2743 34.8178C26.0872 35.0795 26.7209 35.7197 26.9722 36.5319L28.208 40.5285C28.3781 41.0819 29.1638 41.0879 29.343 40.5374Z" fill="white"/>
<path fill-rule="evenodd" clip-rule="evenodd" d="M92.937 38.2215C91.2783 36.3784 88.6899 35.3407 86.1732 34.9151C83.6366 34.5064 80.9763 34.5443 78.4723 34.9864C73.4051 35.8381 68.8017 37.9231 64.7865 40.4953C62.7014 41.7576 60.9233 43.2182 59.0812 44.7058C58.1936 45.4581 57.3844 46.2592 56.5416 47.0489L54.2388 49.3257C51.7365 51.9248 49.2702 54.2921 46.8839 56.2543C44.488 58.2074 42.248 59.6908 40.0404 60.7267C37.8343 61.768 35.4737 62.3804 32.3969 62.4784C29.3471 62.5853 25.7388 62.0383 21.8792 61.1355C17.9989 60.2366 13.9241 58.9554 9.37061 57.8531C10.9594 62.2331 13.352 66.1036 16.4237 69.6419C19.5315 73.1187 23.4122 76.2879 28.3975 78.3721C33.3108 80.5024 39.4852 81.2665 45.2585 80.1128C51.047 79.006 56.1268 76.344 60.2328 73.266C64.3494 70.1563 67.6799 66.6134 70.4876 62.9308C71.2625 61.9133 71.6726 61.3438 72.2334 60.5485L73.7838 58.2667C74.8611 56.8552 75.842 55.2481 76.9079 53.8495C78.9986 50.9206 81.0601 47.9952 83.4551 45.2998C84.6607 43.9328 85.9319 42.6252 87.4325 41.3686C88.1808 40.7552 88.9896 40.155 89.8854 39.6142C90.7945 39.031 91.7548 38.5745 92.937 38.2215Z" fill="white"/>
<path fill-rule="evenodd" clip-rule="evenodd" d="M92.937 38.2214C91.1554 33.7533 87.8425 29.9922 83.396 27.2168C78.9767 24.4719 72.8388 23.0711 66.7562 24.2652C63.7515 24.8427 60.8403 25.9545 58.2856 27.4351C55.7425 28.9098 53.4636 30.685 51.4908 32.5895C50.5059 33.5449 49.6119 34.5416 48.7238 35.5438L46.4219 38.4602L42.8666 43.1547C38.3341 49.1947 33.4533 56.2734 25.4435 58.3708C17.5803 60.4299 14.1698 58.6063 9.37061 57.853C10.2482 60.1042 11.3351 62.2906 12.8087 64.2139C14.2548 66.1763 15.963 68.0194 18.0867 69.599C19.1599 70.3578 20.2929 71.1067 21.5513 71.7419C22.8041 72.3554 24.155 72.8956 25.597 73.3024C28.4652 74.0836 31.6943 74.357 34.8209 73.937C37.9489 73.5223 40.9387 72.537 43.5522 71.2288C46.1849 69.9332 48.4783 68.3549 50.5261 66.6894C54.5968 63.3299 57.7632 59.6181 60.4378 55.8662C61.7831 53.9903 63.0043 52.079 64.1337 50.1673L65.4631 47.8912C65.8694 47.2259 66.2805 46.5565 66.6977 45.933C68.3823 43.4283 70.0298 41.4198 72.0307 39.9123C74.0038 38.3659 76.7518 37.2233 80.4234 36.9578C84.0798 36.6892 88.3011 37.1854 92.937 38.2214Z" fill="white"/>
<path fill-rule="evenodd" clip-rule="evenodd" d="M73.1553 75.3457C73.1553 78.6272 75.8341 81.2891 79.1363 81.2891C82.4391 81.2891 85.114 78.6272 85.114 75.3457C85.114 72.0637 82.4391 69.4023 79.1363 69.4023C75.8341 69.4023 73.1553 72.0637 73.1553 75.3457Z" fill="white"/>
</g>
<defs>
<clipPath id="clip0_1069_6468">
<rect width="105" height="105" fill="white"/>
</clipPath>
</defs>
</svg>
