<svg xmlns="http://www.w3.org/2000/svg" width="71" height="72" viewBox="0 0 71 72" fill="none">
  <g clip-path="url(#clip0_3538_19372)" filter="url(#filter0_d_3538_19372)">
    <path d="M56.3324 58.6622C57.5046 58.6622 58.6316 58.6464 59.7586 58.6661C60.6066 58.6819 61.1682 59.2683 61.1795 60.0947C61.1908 60.8858 60.6707 61.4997 59.9131 61.5785C59.7284 61.5981 59.5362 61.5903 59.3477 61.5903C43.5665 61.5903 27.7853 61.5903 12.0041 61.5903C11.8006 61.5903 11.5895 61.6021 11.3898 61.5745C10.6586 61.4722 10.1686 60.8622 10.1799 60.0908C10.1912 59.3194 10.7151 58.6425 11.4501 58.6976C12.43 58.7724 12.9012 58.4496 13.3082 57.4579C14.2656 55.1201 16.9002 53.7387 19.2672 54.1284C19.4707 54.1599 19.7609 53.9552 19.9343 53.7742C22.2184 51.4049 25.8329 51.4089 28.019 53.845C28.4638 54.3409 28.7389 55.006 29.1271 55.5688C29.244 55.742 29.455 55.9348 29.6397 55.9545C31.3207 56.1119 32.6173 56.9148 33.5558 58.3749C33.6463 58.5166 33.88 58.6386 34.0496 58.6425C35.659 58.6622 37.2684 58.6622 38.8778 58.6425C39.0662 58.6425 39.3074 58.5166 39.4281 58.3631C40.4306 57.0801 41.7084 56.2929 43.2537 55.9348C43.4723 55.8836 43.7173 55.6554 43.8266 55.4429C45.1835 52.7273 47.8407 51.3026 50.7919 51.7316C53.4416 52.1173 55.6427 54.3763 56.1742 57.265C56.2533 57.7019 56.2797 58.1466 56.3362 58.6543L56.3324 58.6622Z" fill="white"/>
    <path d="M25.0659 49.4702C25.0246 49.4463 25.0081 49.4433 25.0053 49.4344C24.3334 47.1752 23.3944 44.9935 23.2677 42.5763C23.1741 40.7552 23.678 39.1696 24.9144 37.8791C25.7598 36.9968 26.5722 36.0759 27.4148 35.1877C27.6324 34.9582 27.7067 34.7406 27.6709 34.4098C27.1367 29.4145 27.6351 24.5533 29.3286 19.8561C30.2787 17.2184 31.6087 14.84 33.5171 12.8699C34.2413 12.1247 34.9325 11.3439 35.6264 10.5928C35.6787 10.6017 35.7118 10.5928 35.7255 10.6077C36.7582 11.7313 37.8266 12.8132 38.8097 13.9875C40.5391 16.056 41.6543 18.5179 42.4639 21.1407C43.8022 25.4713 44.1767 29.9122 43.6866 34.4396C43.6535 34.7376 43.7086 34.9403 43.9096 35.1519C44.7275 36.0103 45.504 36.9134 46.3329 37.7539C47.7401 39.1815 48.277 40.94 48.054 42.9668C47.9521 43.8996 47.7401 44.8296 47.5005 45.7356C47.1948 46.892 46.8121 48.0246 46.4596 49.1662C46.4293 49.2645 46.388 49.3599 46.3302 49.5119L46.0217 49.1781C44.4659 47.4941 42.9073 45.8101 41.3569 44.1202C41.1834 43.9324 41.01 43.8579 40.7676 43.8609C37.3778 43.8698 33.9879 43.8698 30.6009 43.8609C30.342 43.8609 30.163 43.9444 29.9813 44.1411C28.4419 45.825 26.8888 47.4941 25.3413 49.1721L25.0631 49.4731L25.0659 49.4702ZM37.4879 24.2702C36.4883 23.1853 34.8884 23.1793 33.8806 24.2583C32.8782 25.3283 32.8644 27.0838 33.8503 28.1716C34.8361 29.2595 36.5049 29.2655 37.499 28.1836C38.4903 27.1046 38.482 25.3521 37.4879 24.2702Z" fill="white"/>
    <path d="M32.5097 46.8387C34.6274 46.836 36.7516 46.8332 38.8463 46.8278C39.37 49.9048 37.8251 52.4348 35.678 54.88C33.6978 52.4102 31.9729 49.9321 32.5097 46.8387Z" fill="white"/>
  </g>
  <defs>
    <filter id="filter0_d_3538_19372" x="0" y="0.5" width="71" height="71" filterUnits="userSpaceOnUse" color-interpolation-filters="sRGB">
      <feFlood flood-opacity="0" result="BackgroundImageFix"/>
      <feColorMatrix in="SourceAlpha" type="matrix" values="0 0 0 0 0 0 0 0 0 0 0 0 0 0 0 0 0 0 127 0" result="hardAlpha"/>
      <feOffset/>
      <feGaussianBlur stdDeviation="5"/>
      <feColorMatrix type="matrix" values="0 0 0 0 0.388235 0 0 0 0 0.87451 0 0 0 0 0.85098 0 0 0 0.25 0"/>
      <feBlend mode="normal" in2="BackgroundImageFix" result="effect1_dropShadow_3538_19372"/>
      <feBlend mode="normal" in="SourceGraphic" in2="effect1_dropShadow_3538_19372" result="shape"/>
    </filter>
    <clipPath id="clip0_3538_19372">
      <rect width="51" height="51" fill="white" transform="translate(10 10.5)"/>
    </clipPath>
  </defs>
</svg>