<svg xmlns="http://www.w3.org/2000/svg" width="72" height="72" viewBox="0 0 72 72" fill="none">
  <g clip-path="url(#clip0_3538_19384)" filter="url(#filter0_d_3538_19384)">
    <path d="M10.334 52.4334C10.427 51.6618 10.5186 50.8902 10.6142 50.1199C11.2066 45.3774 13.1483 41.2538 16.3929 37.761C17.9734 36.0598 19.6468 34.4448 21.2605 32.7741C22.6749 31.3093 23.9406 29.7329 24.6312 27.782C24.8783 27.0834 25.031 26.3517 25.2528 25.5416C24.7388 25.5416 24.3191 25.5455 23.8981 25.5416C22.9392 25.5323 22.2765 24.9041 22.2898 24.0223C22.303 23.1643 22.9605 22.5574 23.9008 22.5561C27.8015 22.5521 31.7009 22.5521 35.6016 22.5561C36.5724 22.5561 37.2325 23.1736 37.2285 24.0555C37.2245 24.9373 36.5644 25.5349 35.587 25.5429C35.1898 25.5455 34.7941 25.5429 34.3505 25.5429C34.478 26.7753 34.8472 27.8909 35.393 28.9533C36.3387 30.7953 37.7651 32.2549 39.1782 33.733C41.0123 35.6494 42.8451 37.5698 44.5983 39.5592C45.6156 40.7133 46.3634 42.0745 47.0407 43.538C46.8322 43.5513 46.6781 43.5699 46.5241 43.5699C44.9635 43.5726 43.4043 43.5659 41.8437 43.5726C39.1702 43.5832 37.2378 45.5195 37.2338 48.2008C37.2272 52.0841 37.2205 55.9673 37.2458 59.8506C37.2498 60.4017 37.4317 60.9502 37.5313 61.5H16.9082C16.786 61.4641 16.6638 61.4216 16.5403 61.3951C13.5401 60.7603 11.5187 59.0272 10.5916 56.0775C10.4827 55.7309 10.419 55.3737 10.334 55.0231C10.334 54.1598 10.334 53.2966 10.334 52.4334ZM28.265 52.2727C28.265 52.857 28.2544 53.436 28.2677 54.0164C28.2876 54.8677 28.9317 55.5131 29.7459 55.5198C30.5587 55.5264 31.2174 54.8863 31.2493 54.0416C31.2652 53.6273 31.2772 53.2103 31.2453 52.7972C31.2174 52.4214 31.3303 52.2262 31.6942 52.0522C34.0052 50.9446 34.9202 48.2194 33.7223 45.983C32.8962 44.4385 31.5654 43.6469 29.8136 43.5699C28.779 43.5248 28.0684 42.6602 28.3062 41.7372C28.4961 41.0028 29.1721 40.5141 29.8986 40.5871C30.6516 40.6628 31.1855 41.2445 31.252 42.0652C31.3277 42.9882 31.9904 43.6177 32.8337 43.5659C33.6824 43.5141 34.2801 42.8182 34.2323 41.8899C34.1592 40.4822 33.6306 39.186 32.3968 38.5446C31.2878 37.9682 31.1271 37.2152 31.252 36.1846C31.2533 36.1687 31.252 36.1514 31.252 36.1355C31.2254 35.2536 30.5812 34.6016 29.7445 34.6082C28.9105 34.6162 28.2796 35.2722 28.2663 36.162C28.257 36.7251 28.265 37.2882 28.265 37.8526C28.1229 37.9177 28.0007 37.9708 27.8825 38.0266C24.7322 39.5167 24.363 43.7465 27.2091 45.7532C27.9914 46.3044 28.8733 46.5381 29.8282 46.5687C30.5321 46.5912 31.0833 47.0946 31.228 47.7745C31.3582 48.3841 31.0315 49.0601 30.4577 49.3642C29.8548 49.6843 29.1057 49.6046 28.6953 49.0641C28.4616 48.756 28.3367 48.3283 28.273 47.9379C28.1415 47.1291 27.5 46.5288 26.7071 46.562C25.9129 46.5966 25.2754 47.2447 25.286 48.0641C25.2913 48.4572 25.3471 48.8609 25.452 49.2394C25.8611 50.7202 26.8452 51.6896 28.265 52.2753V52.2727Z" fill="white"/>
    <path d="M39.1211 10.5C39.1875 10.5425 39.2512 10.5903 39.3203 10.6275C40.3058 11.1468 40.513 12.2012 39.7705 13.0326C38.4185 14.5439 37.186 16.1416 36.1846 17.9092C35.9402 18.3408 35.7091 18.7818 35.5019 19.232C35.3904 19.4737 35.2589 19.5706 34.98 19.5706C31.4977 19.56 28.0166 19.568 24.5343 19.552C24.3709 19.552 24.1252 19.4099 24.0562 19.2665C22.9366 16.9663 21.4437 14.9304 19.7437 13.0326C19 12.2026 19.2098 11.1454 20.194 10.6275C20.2644 10.5903 20.3281 10.5425 20.3945 10.5C20.8594 10.5 21.3242 10.5 21.7891 10.5C23.424 10.7391 24.9287 11.3181 26.2383 12.3261C28.2451 13.8693 31.248 13.8932 33.3212 12.3022C34.2708 11.5731 35.3359 11.0272 36.518 10.751C36.9191 10.658 37.3241 10.5823 37.7266 10.5C38.1914 10.5 38.6562 10.5 39.1211 10.5Z" fill="white"/>
    <path d="M61.334 51.4373C60.9382 52.3006 60.2529 52.5516 59.3285 52.5462C53.587 52.5184 47.8469 52.533 42.1054 52.5316C40.8769 52.5316 40.3177 51.9699 40.3164 50.7374C40.3164 49.8742 40.3111 49.0123 40.3177 48.1491C40.3257 47.1809 40.9393 46.558 41.9062 46.5567C47.8469 46.5527 53.7862 46.558 59.727 46.5501C60.5358 46.5501 60.9966 46.995 61.334 47.6497V51.4373Z" fill="white"/>
    <path d="M41.4121 61.4973C40.5502 61.1003 40.2473 60.4203 40.3058 59.492C40.3563 58.6991 40.3098 57.901 40.3177 57.1041C40.327 56.1413 40.9459 55.5224 41.9155 55.5224C47.8535 55.5184 53.7902 55.5251 59.7283 55.5158C60.5371 55.5158 60.9966 55.9607 61.334 56.6154V60.4004C61.0963 60.8931 60.7297 61.257 60.2383 61.496H41.4121V61.4973Z" fill="white"/>
  </g>
  <defs>
    <filter id="filter0_d_3538_19384" x="0.333984" y="0.5" width="71" height="71" filterUnits="userSpaceOnUse" color-interpolation-filters="sRGB">
      <feFlood flood-opacity="0" result="BackgroundImageFix"/>
      <feColorMatrix in="SourceAlpha" type="matrix" values="0 0 0 0 0 0 0 0 0 0 0 0 0 0 0 0 0 0 127 0" result="hardAlpha"/>
      <feOffset/>
      <feGaussianBlur stdDeviation="5"/>
      <feColorMatrix type="matrix" values="0 0 0 0 0.388235 0 0 0 0 0.87451 0 0 0 0 0.85098 0 0 0 0.25 0"/>
      <feBlend mode="normal" in2="BackgroundImageFix" result="effect1_dropShadow_3538_19384"/>
      <feBlend mode="normal" in="SourceGraphic" in2="effect1_dropShadow_3538_19384" result="shape"/>
    </filter>
    <clipPath id="clip0_3538_19384">
      <rect width="51" height="51" fill="white" transform="translate(10.334 10.5)"/>
    </clipPath>
  </defs>
</svg>