<svg xmlns="http://www.w3.org/2000/svg" width="62" height="71" viewBox="0 0 62 71" fill="none">
  <g clip-path="url(#clip0_3538_19378)" filter="url(#filter0_d_3538_19378)">
    <path d="M31.0852 35.6952C37.6823 35.6952 43.029 30.0812 43.029 23.1543C43.029 16.2273 37.6823 10.6133 31.0852 10.6133C24.4882 10.6133 19.1414 16.2273 19.1414 23.1543C19.1414 30.0812 24.4882 35.6952 31.0852 35.6952ZM39.4459 38.8305H37.8876C35.8161 39.8299 33.5113 40.3981 31.0852 40.3981C28.6591 40.3981 26.3637 39.8299 24.2829 38.8305H22.7246C15.8009 38.8305 10.1836 44.7287 10.1836 51.9985V56.0743C10.1836 58.6707 12.1898 60.7772 14.6625 60.7772H47.5079C49.9807 60.7772 51.9869 58.6707 51.9869 56.0743V51.9985C51.9869 44.7287 46.3696 38.8305 39.4459 38.8305Z" fill="white"/>
  </g>
  <defs>
    <filter id="filter0_d_3538_19378" x="-0.333008" y="0.5" width="62.5" height="71" filterUnits="userSpaceOnUse" color-interpolation-filters="sRGB">
      <feFlood flood-opacity="0" result="BackgroundImageFix"/>
      <feColorMatrix in="SourceAlpha" type="matrix" values="0 0 0 0 0 0 0 0 0 0 0 0 0 0 0 0 0 0 127 0" result="hardAlpha"/>
      <feOffset/>
      <feGaussianBlur stdDeviation="5"/>
      <feColorMatrix type="matrix" values="0 0 0 0 0.388235 0 0 0 0 0.87451 0 0 0 0 0.85098 0 0 0 0.25 0"/>
      <feBlend mode="normal" in2="BackgroundImageFix" result="effect1_dropShadow_3538_19378"/>
      <feBlend mode="normal" in="SourceGraphic" in2="effect1_dropShadow_3538_19378" result="shape"/>
    </filter>
    <clipPath id="clip0_3538_19378">
      <rect width="42.5" height="51" fill="white" transform="translate(9.66699 10.5)"/>
    </clipPath>
  </defs>
</svg>